<svg viewBox="0 0 198 189" fill="none" xmlns="http://www.w3.org/2000/svg">
                    <g clip-path="url(#clip0_3_2)">
                    <path d="M30.97 18.2C33.1792 18.2 34.97 16.4092 34.97 14.2C34.97 11.9909 33.1792 10.2 30.97 10.2C28.7609 10.2 26.97 11.9909 26.97 14.2C26.97 16.4092 28.7609 18.2 30.97 18.2Z" fill="white"/>
                    <path fill-rule="evenodd" clip-rule="evenodd" d="M29.47 109.52C31.41 109.13 33.4 108.93 35.45 108.93V108.94C52.37 108.94 66.08 122.65 66.08 139.57C66.08 147.057 63.3954 153.916 58.936 159.236C35.0801 155.118 14.4375 152.5 0.500015 152.5V170.194L-21.03 170.19C-21.1898 170.2 -21.3497 170.2 -21.5096 170.2C-34.9896 170.2 -45.92 159.27 -45.92 145.79C-45.92 132.31 -34.99 121.38 -21.51 121.38C-21.425 121.38 -21.3375 121.383 -21.25 121.385C-21.1625 121.388 -21.075 121.39 -20.99 121.39C-21.01 120.911 -21.03 120.43 -21.03 119.94C-21.03 105.41 -9.24995 93.62 5.29005 93.62C16.13 93.62 25.43 100.17 29.47 109.52Z" fill="white"/>
                    <path d="M232.45 28.93C230.4 28.93 228.41 29.13 226.47 29.52C222.43 20.17 213.13 13.62 202.29 13.62C187.75 13.62 175.97 25.41 175.97 39.94C175.97 40.43 175.99 40.91 176.01 41.39C175.84 41.39 175.66 41.38 175.49 41.38C162.01 41.38 151.08 52.31 151.08 65.79C151.08 79.27 162.01 90.2 175.49 90.2C175.65 90.2 175.81 90.2 175.97 90.19L232.45 90.2C249.37 90.2 263.08 76.49 263.08 59.57C263.08 42.65 249.37 28.94 232.45 28.94V28.93Z" fill="white"/>
                    <path d="M136.47 3.20001C137.298 3.20001 137.97 2.52844 137.97 1.70001C137.97 0.871581 137.298 0.200012 136.47 0.200012C135.642 0.200012 134.97 0.871581 134.97 1.70001C134.97 2.52844 135.642 3.20001 136.47 3.20001Z" fill="white"/>
                    <path d="M136.3 147.96C137.128 147.96 137.8 147.288 137.8 146.46C137.8 145.632 137.128 144.96 136.3 144.96C135.472 144.96 134.8 145.632 134.8 146.46C134.8 147.288 135.472 147.96 136.3 147.96Z" fill="white"/>
                    <path d="M198.5 190H0V152L24 154.5L46.5 157L93.5 165.5L198.5 190Z" fill="white" stroke="white"/>
                    </g>
                    <defs>
                    <clipPath id="clip0_3_2">
                    <rect width="199" height="190" fill="white"/>
                    </clipPath>
                    </defs>
                    </svg>