<?xml version="1.0" encoding="UTF-8"?>
<svg id="_Слой_2" data-name="Слой 2" xmlns="http://www.w3.org/2000/svg" viewBox="0 0 75.41 76.34">
  <defs>
    <style>
      .cls-1 {
        fill: #1b1b1b;
      }

      .cls-1, .cls-2, .cls-3 {
        stroke-width: 0px;
      }

      .cls-2 {
        fill: #f8412c;
      }

      .cls-3 {
        fill: #fff;
      }
    </style>
  </defs>
  <g id="TEXTS">
    <g>
      <g>
        <path class="cls-1" d="M71.51,43.63c-.81-1.23-1.62-2.46-2.45-3.69-.42-.63-.84-1.26-1.27-1.88-.29-.42-.3-.72,0-1.15.93-1.35,1.84-2.71,2.75-4.08.36-.53.7-1.07,1.06-1.6.28-.42.36-.81.26-1.15h0c-.06-.23-.21-.44-.45-.6-.26-.17-.57-.28-.87-.38-2.08-.69-4.17-1.39-6.25-2.08-1.89-.63-3.79-1.26-5.69-1.89.13.88.27,1.76.4,2.62,2.34.79,4.67,1.56,7.01,2.34h0c.24.08.48.16.71.24h.01s.01,0,.02,0c.5.17.99.33,1.48.5.2.07.44.07.54.34-.08.11-.16.24-.24.36-.19.28-.38.57-.56.85-.71,1.06-1.42,2.12-2.11,3.19-.24.38-.47.45-.91.3-.03,0-.05-.01-.07-.03-1.73-.58-3.47-1.16-5.21-1.74.07.83.14,1.69.21,2.58.59.2,1.17.4,1.77.59.11.03.21.09.33.13-.07.28-.32.26-.48.32-.5.17-1,.34-1.5.5.07.81.13,1.63.19,2.44.09-.03.18-.06.28-.09,1.51-.5,3.03-.99,4.53-1.51.32-.11.55-.15.76.17.96,1.46,1.93,2.9,2.89,4.35.04.06.07.13.12.2-.08.3-.36.28-.58.36-2.53.85-5.06,1.69-7.59,2.54-1.33.44-2.66.89-3.98,1.33-1.01.34-2.01.67-3.01,1.01h0c-3.32,1.11-6.64,2.21-9.94,3.34-.57.19-.87.09-1.19-.42-.81-1.29-1.65-2.55-2.53-3.79-.13-.19-.2-.33-.2-.44,0-.05.01-.08.03-.12,0,0,0,0,0,0l-5.52-.57c.36.12.71.23,1.07.36.17.06.36.11.48.28-.1.15-.18.28-.26.4-.89,1.35-1.8,2.68-2.68,4.04-.24.38-.46.46-.9.31-8.27-2.77-16.54-5.52-24.81-8.26-.49-.17-.54-.32-.25-.75.93-1.33,1.81-2.68,2.69-4.03.22-.34.44-.43.85-.29.75.25,1.5.5,2.26.75l.71-4.89c-.9.3-1.81.6-2.71.91-.6.2-.91.11-1.25-.43-.79-1.27-1.62-2.52-2.49-3.73-.42-.58-.19-.71.36-.89,2.5-.83,5.01-1.66,7.51-2.5.21-.9.42-1.8.63-2.7-3.52,1.17-7.03,2.34-10.56,3.51-1.5.5-1.73,1.12-.86,2.43,1.21,1.82,2.41,3.64,3.64,5.44.26.39.26.64,0,1.03-1.29,1.88-2.54,3.78-3.8,5.69-.65.99-.4,1.69.74,2.07,1,.34,1.99.71,2.99.99.53.15.64.41.64.92-.03,2.97-.01,5.95-.01,8.91v8.62c0,1.29.13,1.47,1.38,1.89,9.1,3.03,18.19,6.06,27.29,9.1.54.18,1.03.2,1.56.02,9.15-3.06,18.3-6.11,27.45-9.16,1.08-.36,1.25-.61,1.25-1.77,0-5.87.01-11.73-.01-17.61,0-.57.17-.79.7-.94.99-.28,1.96-.64,2.93-.97,1.17-.41,1.4-1.11.71-2.14ZM36.5,73.54c-1.93-.64-3.81-1.26-5.69-1.89-6.48-2.16-12.97-4.33-19.46-6.47-.55-.18-.77-.41-.76-1.03.03-5.2.03-10.4,0-15.61,0-.69.17-.74.77-.54,6.92,2.33,13.85,4.63,20.77,6.95,1.17.39,1.45.29,2.13-.74.71-1.06,1.42-2.12,2.23-3.34v22.67ZM64.11,65.17c-8.14,2.69-16.27,5.41-24.41,8.12q-.8.27-.8-.59c0-7.07,0-14.14,0-21.2v-.44s.09-.03.13-.04c.72,1.08,1.44,2.15,2.15,3.24.65.98.96,1.08,2.09.71,5.35-1.79,10.71-3.57,16.06-5.36.46-.15.93-.31,1.4-.46,1.11-.37,2.21-.74,3.32-1.11.79-.26.79-.26.79.56,0,5.18,0,10.36.01,15.54,0,.59-.17.85-.73,1.04Z"/>
        <path class="cls-3" d="M1.16,18.11C.53,18.1,0,17.58,0,16.94c0-.67.56-1.21,1.22-1.18.63.03,1.14.57,1.13,1.2-.02.63-.55,1.15-1.19,1.15Z"/>
        <path class="cls-2" d="M50.2,21.71c0,1.98-1.5,3.29-3.81,3.33-.15.03-.31.04-.46.04-.62,0-1.21-.21-1.71-.61-1.05-.83-1.57-2.34-1.64-3.46-.05-.85.3-1.69.97-2.37.79-.81,1.95-1.29,2.95-1.25,2.15.1,3.71,1.91,3.7,4.32Z"/>
        <path class="cls-3" d="M39.03,51.02c.72,1.08,1.43,2.16,2.15,3.23.65.98.96,1.08,2.09.71,6.92-2.31,13.85-4.62,20.77-6.92q.78-.26.78.56c0,5.18,0,10.36.01,15.54,0,.59-.17.86-.74,1.04-8.14,2.69-16.27,5.41-24.4,8.11-.8.27-.8.26-.8-.59,0-7.07,0-14.14,0-21.21v-.44s.09-.03.13-.04Z"/>
        <path class="cls-3" d="M36.5,50.87v22.67c-1.93-.64-3.81-1.26-5.69-1.89-6.49-2.16-12.97-4.33-19.46-6.47-.55-.18-.76-.41-.76-1.02.03-5.2.03-10.41,0-15.61,0-.69.16-.74.77-.54,6.92,2.33,13.85,4.63,20.77,6.94,1.17.39,1.45.29,2.14-.74.71-1.06,1.41-2.12,2.22-3.34Z"/>
        <path class="cls-3" d="M35.8,47.64c-.1.15-.18.28-.26.4-.89,1.35-1.8,2.68-2.68,4.04-.24.38-.46.46-.9.31-8.27-2.77-16.54-5.52-24.81-8.26-.49-.17-.54-.32-.25-.75.93-1.33,1.81-2.68,2.69-4.03.22-.34.44-.43.85-.29.75.25,1.5.5,2.26.75,7.18,2.4,14.37,4.79,21.56,7.19.36.12.71.23,1.07.36.17.06.36.11.48.28Z"/>
        <path class="cls-3" d="M68.77,43.79c-.08.3-.36.28-.58.36-2.53.85-5.06,1.69-7.59,2.54-1.33.44-2.66.89-3.98,1.33-1.01.34-2.01.67-3.01,1.01h0c-3.32,1.11-6.64,2.21-9.94,3.34-.57.19-.87.09-1.19-.42-.81-1.29-1.65-2.55-2.53-3.79-.13-.19-.2-.33-.2-.44,0-.05.01-.08.03-.12,0,0,0,0,0,0,.01-.03.04-.05.07-.07.08-.07.22-.12.4-.18,6.65-2.2,13.3-4.43,19.95-6.65.09-.03.18-.06.28-.09,1.51-.5,3.03-.99,4.53-1.51.32-.11.55-.15.76.17.96,1.46,1.93,2.9,2.89,4.35.04.06.07.13.12.2Z"/>
        <path class="cls-1" d="M61.98,37.42c-.07.28-.32.26-.48.32-.5.17-1,.34-1.5.5-.04-.51-.08-1.03-.12-1.53.59.2,1.17.4,1.77.59.11.03.21.09.33.13Z"/>
        <path class="cls-3" d="M14.83,28.3c-.16.7-.32,1.4-.47,2.11-.12.55-.43,1.08-.54,1.64l-.42,2.88c-.9.3-1.81.6-2.71.91-.6.2-.91.11-1.25-.43-.79-1.27-1.62-2.52-2.49-3.73-.42-.58-.19-.71.36-.89,2.5-.83,5.01-1.66,7.51-2.49Z"/>
        <path class="cls-3" d="M68.78,31.18c-.08.11-.16.24-.24.36-.19.28-.38.57-.56.85-.71,1.06-1.42,2.12-2.11,3.19-.24.38-.47.45-.91.3-.03,0-.05-.01-.07-.03-1.73-.58-3.47-1.16-5.21-1.74-.25-2.83-.48-5.17-.63-6.12-.01-.08-.03-.16-.04-.25,2.34.79,4.67,1.56,7.01,2.34h0c.24.08.48.16.71.24h.01s.01,0,.02,0c.5.17.99.33,1.48.5.2.07.44.07.54.34Z"/>
      </g>
      <g>
        <path class="cls-1" d="M63.13,38.21c-.26-.05-.52-.14-.78-.14-1.01,0-1.54-.75-1.99-1.59-.16-.31-.23-.76-.19-1.13.22-2.06.78-4.04,1.62-5.9.39-.87.97-1.64,1.52-2.42,1.16-1.67,2.47-3.18,3.83-4.64,1.01-1.08,1.45-2.44,1.34-3.95-.03-.42-.26-.87-.51-1.19-.3-.39-.72-.25-1.14-.03-.4.21-.5.48-.49.95.02.7-.04,1.41-.1,2.11-.15,1.66-1.04,2.95-2.45,3.46-.48.17-.93.44-1.51.38-1.21-.12-1.89-.93-2.39-1.98-.91-1.91-1.13-3.99-.63-6.18.17-.72.28-1.48.56-2.15.93-2.22,2.44-3.72,4.5-4.42,1.9-.64,3.7-.26,5.52.35,1.33.44,2.21,1.46,3.2,2.39.97.91,1.7,2.02,2.11,3.39.21.69.34,1.38.21,2.15-.15.92-.2,1.86-.33,2.79-.24,1.69-.82,3.26-1.6,4.73-1.03,1.93-2.13,3.81-3.21,5.7-1.08,1.87-1.98,3.83-2.45,6-.25,1.17-.84,1.77-2.21,1.63-.81-.08-1.62-.21-2.43-.31,0,0,0,.01,0,.02Z"/>
        <g>
          <path class="cls-1" d="M60.72,49.15c-.02-.61-.06-1.46-.12-2.46-1.33.44-2.66.89-3.98,1.33-1.01.34-2.01.67-3.01,1.01l5.72.59,1.41.15c0-.17,0-.37-.01-.61Z"/>
          <path class="cls-1" d="M60,38.23c-.04-.51-.08-1.03-.12-1.53-.07-.89-.15-1.75-.21-2.58-.25-2.83-.48-5.17-.63-6.12-.01-.08-.03-.16-.04-.25-.13-.86-.28-1.74-.4-2.62-.09-.62-.17-1.25-.24-1.87-.22-1.79-.68-3.52-1.12-5.2-.21-.83-.44-1.68-.63-2.52-1.03-4.51-2.51-9.18-4.52-14.28-.12-.3-.28-.72-.64-.99-.6-.45-1.41-.27-1.9.09-1.47,1.07-2.68,3.36-3.47,4.97-.17.34-.32.77-.48,1.22-.17.48-.35,1-.58,1.47-.35.76-.81,1.4-1.48,1.52-.41.07-.85-.01-1.32-.1h-.06c-.5-.11-1-.2-1.5-.28-1.7-.26-3.44-.41-5.16-.43-.53,0-1.07,0-1.6,0-.58.02-1.17.05-1.75.09-.19.01-.44.07-.69.13-.42.09-1.21.26-1.39.07-.21-.23-.38-.59-.5-.99-.09-.3-.17-.61-.25-.91-.09-.34-.17-.66-.26-.94-.34-.95-.72-1.97-1.1-2.92-.03-.08-.07-.16-.1-.26-.38-.97-1.01-2.61-2.49-2.35-1.36.24-2.48,2.22-3.15,3.4-.05.09-.09.18-.14.26-1.46,2.55-2.28,5.4-3.07,8.15-.11.36-.21.71-.31,1.06-.96,3.26-1.86,6.58-2.68,9.88-.18.72-.36,1.45-.54,2.18-.21.9-.42,1.8-.63,2.7h0c-.16.71-.32,1.41-.47,2.11-.12.55-.43,1.08-.54,1.64l-.42,2.88-.71,4.89c7.18,2.4,14.37,4.79,21.56,7.19l5.52.57s.04-.05.07-.07c.08-.07.22-.12.4-.18,6.65-2.2,13.3-4.43,19.95-6.65-.06-.81-.12-1.63-.19-2.44ZM40.87,21.08c0-1.6.67-3.19,1.8-4.25.89-.84,1.98-1.27,3.07-1.2,1.98.12,3.55.68,4.66,1.66.32.28.59.58.83.93.08.11.15.23.23.36.09.15.17.3.24.46.09.19.17.39.24.6.05.15.09.3.13.46.11.42.18.87.21,1.36.02.31.02.63.01.97-.07,2.37-2.73,4.9-5.26,5.01h-.07c-.11,0-.23.01-.34.01-1.62,0-2.93-.45-3.88-1.33-1.16-1.07-1.79-2.75-1.88-5.01v-.02ZM21.19,21.26c.01-.12.03-.25.05-.38.05-.26.12-.52.22-.78.05-.13.1-.27.16-.4.11-.25.23-.49.38-.74.05-.09.11-.19.17-.28.06-.09.12-.18.19-.28.02-.03.04-.05.05-.07.12-.15.24-.32.37-.46,1.15-1.35,2.54-2.13,3.73-2.11,3.91.08,6.12,2.27,6.23,6.16.24,1.15-.03,2.3-.81,3.32-.17.22-.36.44-.56.63-.07.07-.13.13-.21.19-.46.41-.98.75-1.55,1-.11.05-.24.11-.36.15-.25.1-.5.18-.76.24-.09.03-.19.05-.28.07-.29.06-.58.1-.87.12-.23.01-.45.02-.66.02-.4,0-.79-.03-1.13-.08-.11-.02-.23-.04-.34-.07-.11-.02-.22-.05-.33-.08-.04,0-.08-.01-.12-.03-.06,0-.12-.03-.17-.05-.05,0-.09-.03-.13-.05-.09-.03-.18-.07-.27-.11-.31-.13-.59-.3-.85-.51-.05-.03-.08-.06-.12-.1-.1-.08-.19-.17-.28-.26-.08-.09-.16-.18-.23-.28-.03-.04-.07-.08-.09-.12-.05-.05-.09-.11-.13-.17-.03-.05-.07-.1-.11-.16-.04-.07-.08-.13-.12-.21-.05-.09-.1-.18-.15-.28-.15-.29-.28-.6-.4-.96-.03-.11-.07-.23-.11-.35-.15-.48-.28-1.03-.39-1.64-.03-.17-.05-.35-.05-.53,0-.11,0-.23.02-.36Z"/>
          <path class="cls-3" d="M52.28,21.45c-.03-.48-.11-.93-.21-1.36-.04-.15-.08-.31-.13-.46-.07-.21-.15-.42-.24-.6-.07-.16-.15-.32-.24-.46-.07-.13-.15-.24-.23-.36-.24-.34-.52-.65-.83-.93-1.11-.98-2.68-1.54-4.66-1.66-1.09-.07-2.17.36-3.07,1.2-1.13,1.06-1.8,2.65-1.8,4.25v.02c.09,2.26.72,3.94,1.88,5.01.95.88,2.26,1.33,3.88,1.33.11,0,.22,0,.34-.01h.07c2.53-.11,5.18-2.64,5.26-5.01,0-.34,0-.66-.01-.97ZM46.4,25.04c-.15.03-.31.04-.46.04-.62,0-1.21-.21-1.71-.61-1.05-.83-1.57-2.34-1.64-3.46-.05-.85.3-1.69.97-2.37.79-.81,1.95-1.29,2.95-1.25,2.15.1,3.71,1.91,3.7,4.32,0,1.98-1.5,3.29-3.81,3.33Z"/>
          <path class="cls-3" d="M32.76,21.91c-.11-3.89-2.32-6.07-6.23-6.16-1.19-.03-2.58.76-3.73,2.11-.13.15-.25.31-.37.46-.01.03-.03.05-.05.07-.07.09-.13.18-.19.28-.06.09-.12.19-.17.28-.15.25-.28.49-.38.74-.06.13-.11.27-.16.4-.1.26-.17.52-.22.78-.03.13-.04.26-.05.38-.01.12-.02.24-.02.36,0,.18.01.36.05.53.11.62.24,1.16.39,1.64.03.12.07.23.11.35.12.36.25.67.4.96.05.09.09.19.15.28.04.07.08.14.12.21.03.06.07.11.11.16.04.06.08.12.13.17.03.04.06.08.09.12.07.09.15.19.23.28.09.09.18.18.28.26.04.04.07.07.12.1.26.21.54.38.85.51.09.05.17.09.27.11.04.02.08.04.13.05.05.03.11.05.17.05.04.02.08.03.12.03.11.03.21.06.33.08.11.03.23.05.34.07.35.05.73.08,1.13.08.21,0,.44,0,.66-.02.3-.02.58-.06.87-.12.09-.02.19-.04.28-.07.26-.06.51-.14.76-.24.12-.05.25-.1.36-.15.57-.26,1.09-.59,1.55-1,.07-.06.14-.12.21-.19.21-.19.4-.41.56-.63.77-1.02,1.05-2.17.81-3.32ZM29.63,24.49c-.8.62-1.91.96-3.11.97h-.02c-.74,0-1.5-.35-2.14-.98-.82-.82-1.3-1.97-1.3-3.07v-.03s0-.03,0-.05c.01-.19.05-.38.1-.56.01-.06.03-.12.05-.17.11-.35.28-.67.5-.97.07-.09.14-.18.22-.27.08-.09.17-.19.28-.28.09-.09.2-.17.31-.25.79-.56,1.8-.87,2.8-.83,1.67.05,3.62,1.14,3.6,4.01,0,.96-.45,1.85-1.29,2.48Z"/>
        </g>
        <path class="cls-1" d="M30.92,22.01c0,.96-.45,1.85-1.29,2.48-.8.62-1.91.96-3.11.97h-.02c-.74,0-1.5-.35-2.14-.98-.82-.82-1.3-1.97-1.3-3.07v-.03s0-.03,0-.05c.01-.19.05-.38.1-.56.01-.06.03-.12.05-.17.11-.35.28-.67.5-.97.07-.09.14-.18.22-.27.08-.09.17-.19.28-.28.09-.09.2-.17.31-.25.79-.56,1.8-.87,2.8-.83,1.67.05,3.62,1.14,3.6,4.01Z"/>
        <path class="cls-1" d="M50.2,21.71c0,1.98-1.5,3.29-3.81,3.33-.15.03-.31.04-.46.04-.62,0-1.21-.21-1.71-.61-1.05-.83-1.57-2.34-1.64-3.46-.05-.85.3-1.69.97-2.37.79-.81,1.95-1.29,2.95-1.25,2.15.1,3.71,1.91,3.7,4.32Z"/>
      </g>
    </g>
  </g>
</svg>