<svg width="198" height="216" viewBox="0 0 198 214" fill="none" xmlns="http://www.w3.org/2000/svg">
<mask id="mask0_91_2" style="mask-type:luminance" maskUnits="userSpaceOnUse" x="0" y="0" width="198" height="216">
<path d="M173.92 0H24.07C10.77 0 0 10.78 0 24.07V215.33H198V24.08C198 10.78 187.22 0.0100021 173.93 0.0100021L173.92 0Z" fill="white"/>
</mask>
<g mask="url(#mask0_91_2)">
<path d="M34.55 126.44C32.5 126.44 30.51 126.64 28.57 127.03C24.53 117.68 15.23 111.13 4.38995 111.13C-10.15 111.13 -21.93 122.92 -21.93 137.45C-21.93 137.94 -21.91 138.42 -21.89 138.9C-22.06 138.9 -22.24 138.89 -22.41 138.89C-35.89 138.89 -46.82 149.82 -46.82 163.3C-46.82 176.78 -35.89 187.71 -22.41 187.71C-22.25 187.71 -22.09 187.71 -21.93 187.7L34.55 187.71C51.47 187.71 65.18 174 65.18 157.08C65.18 140.16 51.47 126.45 34.55 126.45V126.44Z" fill="white"/>
<path d="M197.82 233.52H-0.179993V112.02C6.15334 110.52 20.72 111.42 28.32 127.02C37.1533 125.353 56.52 127.12 63.32 147.52C95.32 149.187 167.02 168.72 197.82 233.52Z" fill="white" stroke="white"/>
<path d="M231.55 54.74C229.5 54.74 227.51 54.94 225.57 55.33C221.53 45.98 212.23 39.43 201.39 39.43C186.85 39.43 175.07 51.22 175.07 65.75C175.07 66.24 175.09 66.72 175.11 67.2C174.94 67.2 174.76 67.19 174.59 67.19C161.11 67.19 150.18 78.12 150.18 91.6C150.18 105.08 161.11 116.01 174.59 116.01C174.75 116.01 174.91 116.01 175.07 116L231.55 116.01C248.47 116.01 262.18 102.3 262.18 85.38C262.18 68.46 248.47 54.75 231.55 54.75V54.74Z" fill="white"/>
<path d="M30.08 44C32.2892 44 34.08 42.2091 34.08 40C34.08 37.7909 32.2892 36 30.08 36C27.8709 36 26.08 37.7909 26.08 40C26.08 42.2091 27.8709 44 30.08 44Z" fill="white"/>
<path d="M135.58 29C136.408 29 137.08 28.3284 137.08 27.5C137.08 26.6716 136.408 26 135.58 26C134.752 26 134.08 26.6716 134.08 27.5C134.08 28.3284 134.752 29 135.58 29Z" fill="white"/>
<path d="M135.41 173.77C136.238 173.77 136.91 173.098 136.91 172.27C136.91 171.442 136.238 170.77 135.41 170.77C134.582 170.77 133.91 171.442 133.91 172.27C133.91 173.098 134.582 173.77 135.41 173.77Z" fill="white"/>
</g>
<path d="M94.8801 80.72C94.8701 80.64 94.8501 80.56 94.8401 80.47C94.7401 80 94.65 79.67 94.51 79.36C94.37 79.03 94.1701 78.74 93.8701 78.34C93.8401 78.3 93.81 78.26 93.78 78.23C93.19 77.51 92.58 77.02 91.8 76.66C91.48 76.52 91.1401 76.39 90.7501 76.29C90.1901 76.15 89.9901 76.13 89.9701 75.96C89.9401 75.87 90.0101 75.68 90.1201 75.44C90.4201 74.68 90.75 73.41 90.78 72.71C90.78 72.52 90.7701 72.32 90.7501 72.1C90.7201 71.87 90.69 71.63 90.64 71.42C90.58 71.1 90.51 70.81 90.4 70.59C90.29 70.36 90.12 70.11 89.95 69.86C89.76 69.67 89.6101 69.51 89.6001 69.46V69.42C89.4101 69.21 89.21 69.03 89.04 68.9C88.93 68.81 88.76 68.71 88.57 68.6C87.84 68.2 86.7 67.7 86.07 67.55C85.51 67.42 85.1601 67.35 84.7401 67.35C83.4401 67.35 82.15 67.73 81.04 68.41C80.47 68.76 79.98 69.19 79.52 69.67C79.4 69.79 78.53 70.5 78.56 70.62C78.63 70.97 78.74 71.33 78.79 71.58C78.93 72.25 79.09 72.94 79.27 73.63C79.37 74.03 79.4801 74.43 79.5901 74.79C79.8701 75.76 80.15 76.77 80.4 77.78C80.58 78.44 80.74 79.09 80.91 79.74L81.16 80.94C81.24 81.34 81.32 81.72 81.44 82.15C81.68 82.96 81.86 83.7 82.02 84.5C82.16 85.13 82.26 85.8 82.4 86.46C82.46 86.8 82.5 87.15 82.58 87.51C82.71 88.13 82.87 88.72 83.06 89.34L83.31 90.54C83.35 90.73 83.51 90.78 83.7 90.78C83.8 90.78 83.9101 90.75 84.0001 90.75C84.2301 90.7 84.48 90.69 84.76 90.62C85 90.57 85.2401 90.52 85.4801 90.46C86.0601 90.32 86.64 90.17 87.15 90.04C87.18 90.03 87.2001 90.03 87.2401 90.01C87.5801 89.91 87.9001 89.82 88.2301 89.73C88.3401 89.7 88.46 89.67 88.57 89.63C89.05 89.54 89.5401 89.4 90.0001 89.24C90.5301 89.01 91.43 88.55 92.07 88.15C92.3 88.01 92.4901 87.9 92.6301 87.8C92.6601 87.77 92.6901 87.75 92.7201 87.74C92.7601 87.69 92.8101 87.65 92.8501 87.61C92.8901 87.58 92.93 87.55 92.96 87.51C92.99 87.47 93.04 87.43 93.07 87.4C93.11 87.35 93.15 87.31 93.18 87.27C93.21 87.24 93.2201 87.22 93.2401 87.18C93.2901 87.13 93.3401 87.07 93.3801 87C93.4201 86.96 93.4401 86.92 93.4801 86.86C93.5201 86.82 93.54 86.78 93.57 86.75C93.61 86.7 93.65 86.64 93.68 86.57C93.71 86.5 93.74 86.46 93.78 86.39C93.94 86.11 94.0801 85.82 94.2201 85.51C94.2601 85.41 94.3 85.31 94.33 85.21C94.36 85.15 94.38 85.07 94.41 85C94.79 83.95 94.9901 82.78 94.9701 81.68C94.9701 81.35 94.94 81.04 94.89 80.72H94.8801ZM85.3701 75.36C85.0801 75.61 84.76 75.85 84.52 75.99L84.4901 76.03C84.4801 75.97 84.4101 75.82 84.3801 75.63C84.3401 75.48 84.32 75.3 84.28 75.09C84.12 74.14 83.9401 72.83 83.9901 72.77C84.0301 72.71 84.13 72.64 84.26 72.62C84.29 72.62 84.3 72.61 84.31 72.61C84.44 72.58 84.5801 72.57 84.7301 72.57C84.8801 72.57 85.03 72.58 85.17 72.6C85.2 72.6 85.2201 72.61 85.2501 72.61C85.3901 72.62 85.5 72.65 85.58 72.67C86.07 72.83 86.38 73.16 86.45 73.54C86.51 73.86 86.4 74.25 86.15 74.59C85.96 74.83 85.6801 75.11 85.3801 75.37L85.3701 75.36ZM89.3401 84.02C88.8301 84.29 87.82 84.66 87.27 84.78L86.66 84.91L86.31 83.47C86.11 82.7 85.91 81.85 85.83 81.64L85.7 81.2L86.8401 81C87.2701 80.94 87.8 80.86 88.32 80.86C89.08 80.86 89.8001 81.04 90.1301 81.77C90.1801 81.86 90.1901 81.96 90.2201 82.05C90.3701 82.77 89.9701 83.68 89.3501 84.03L89.3401 84.02Z" fill="#1B1B1B" stroke="white" stroke-width="0.32" stroke-miterlimit="10"/>
<path d="M118.62 107.12C118.61 107.28 118.47 107.37 118.24 107.37C117.29 107.4 116.35 107.42 115.4 107.43C114.92 107.43 114.43 107.44 113.95 107.44C113.53 107.45 113.36 107.31 113.1 107C112.89 106.67 112.75 106.31 112.61 105.94C112.31 105.12 111.99 104.31 111.65 103.51C111.35 102.79 110.97 102.07 110.75 101.32L110.72 101.26C110.63 101.27 110.54 101.27 110.45 101.29L110.2 101.71C109.38 103.2 107.24 106.41 106.81 106.83L106.48 107.16C105.23 107.1 103.99 106.92 102.77 106.64C102.35 106.55 101.94 106.27 102.19 105.81C102.62 105 103.11 104.22 103.64 103.47C104.21 102.66 105.03 101.3 105.59 100.46C106.99 100.47 108.28 100.43 109.43 100.37C111.24 100.28 112.81 99.92 114.95 99.25C115.04 99.4 115.1 99.59 115.17 99.76L116.31 101.93C116.7 102.64 117.08 103.36 117.42 104.1C117.76 104.84 118.08 105.58 118.37 106.33C118.45 106.53 118.52 106.73 118.59 106.93C118.62 107.01 118.62 107.07 118.62 107.12Z" fill="#1B1B1B" stroke="white" stroke-width="0.32" stroke-miterlimit="10"/>
<path d="M104.37 87.64C104.37 87.64 104.37 87.65 104.36 87.65C103.99 88.19 103.59 88.84 103.32 89.47C102.99 90.16 102.6 91.18 102.42 91.71C102.24 92.23 101.75 93.52 101.31 94.59C100.88 95.64 100.62 96.27 100.46 96.67C100.37 96.88 99.7901 98.34 99.7501 98.45C97.5301 98.25 96.74 97.78 94.27 97.21C94.09 97.02 92.81 95.6 92.64 95.41C92.6 95.37 92.58 95.33 92.55 95.3C92.26 94.95 91.68 94.3 91.31 93.86C90.92 93.42 90.1901 92.5 89.5001 91.57C89.4901 91.56 89.47 91.53 89.46 91.52C89.41 91.46 89.37 91.39 89.31 91.33C89.16 91.1 88.99 90.88 88.83 90.66C88.74 90.53 88.65 90.41 88.56 90.28C88.51 90.2 88.45 90.13 88.4 90.05C88.32 89.94 88.26 89.84 88.2 89.73C88.31 89.7 88.43 89.67 88.54 89.63C89.02 89.54 89.51 89.4 89.97 89.24C90.5 89.01 91.4 88.55 92.04 88.15C92.27 88.01 92.46 87.9 92.6 87.8C92.66 87.79 92.71 87.79 92.78 87.79C92.87 87.79 92.9401 87.8 92.9901 87.83C93.1701 87.93 93.62 88.49 93.94 88.98C93.95 88.98 93.95 88.99 93.95 88.99C93.99 89.05 94.03 89.12 94.06 89.17C94.19 89.42 94.62 90.03 94.96 90.52C95.34 91.05 95.84 91.76 96.11 92.15C96.39 92.55 96.69 93 96.78 93.16L96.97 93.43L97.22 92.68C97.62 91.34 98.63 88.73 99.17 87.54C99.3 87.26 99.4 87.06 99.46 86.96L99.71 86.57L100.2 86.49C100.45 86.44 101.06 86.4 101.53 86.38C102 86.34 102.69 86.32 103.05 86.28C103.11 86.28 103.18 86.27 103.24 86.27H103.25C103.3 86.27 103.34 86.27 103.38 86.26C103.49 86.26 103.63 86.25 103.81 86.25L104.37 87.65V87.64Z" fill="#1B1B1B" stroke="white" stroke-width="0.32" stroke-miterlimit="10"/>
<path d="M119.83 87.36C119.68 87.68 119.46 87.96 119.24 88.23C118.35 89.35 117.65 90.66 116.86 91.86C116.07 93.06 115.21 94.36 114.36 95.59C114.24 95.77 114.05 96 114.06 96.23C114.06 96.36 114.15 96.54 114.19 96.67C114.29 97.03 114.41 97.38 114.53 97.74C114.56 97.84 115.05 99.23 114.95 99.25C113.33 99.7 109.68 98.52 108.24 98.59C107.89 98.6 107.3 98.66 106.85 98.68C106.99 98.47 107.98 96.98 108.06 96.86C108.22 96.59 108.26 96.53 108.26 96.49C108.26 96.29 108.07 96 107.99 95.82C107.36 94.35 106.66 92.94 105.94 91.53C105.57 90.81 105.43 90.08 105.07 89.37C104.88 88.99 104.55 88.13 104.36 87.63L103.8 86.23L103.56 85.61L103.51 85.47C103.43 85.31 103.56 85.14 103.72 85.15H103.8L104.39 85.18H104.48L105.91 85.26C106.83 85.33 107.75 85.44 108.66 85.56C108.98 86.49 109.35 87.42 109.62 88.37C109.85 89.12 110.06 89.87 110.39 90.57L110.91 91.76C110.99 91.95 111.07 92.06 111.12 92.06C111.13 92.06 111.18 92.01 111.25 91.92C111.32 91.83 111.39 91.71 111.46 91.59C112.15 90.34 112.74 89.29 113.17 88.52C113.6 87.76 113.91 87.29 113.98 87.16C114.37 86.36 114.67 85.92 114.67 85.92C115.94 86.27 117.21 86.62 118.49 86.97L119.33 87.2C119.48 87.24 119.71 87.26 119.83 87.36Z" fill="#1B1B1B" stroke="white" stroke-width="0.32" stroke-miterlimit="10"/>
<path d="M99.54 99.15C99.15 100.15 98.1901 102.64 97.8801 103.66C97.6201 104.53 97.35 105.4 97.08 106.28C96.93 106.75 96.8201 107.25 96.6101 107.7C96.3601 108.26 95.9 108.5 95.31 108.59C94.16 108.76 92.98 108.77 91.82 108.85C91.52 108.87 90.7701 108.83 90.9901 108.36C91.8701 106.41 92.53 104.39 93.26 102.38C93.42 101.94 93.59 101.51 93.77 101.08C93.86 100.87 93.95 100.66 94.04 100.46C94.06 100.43 94.82 98.45 94.85 98.45C96.45 98.75 98.03 98.99 99.55 99.16L99.54 99.15Z" fill="#1B1B1B" stroke="white" stroke-width="0.32" stroke-miterlimit="10"/>
<path d="M125.42 84.72C125.5 84.98 125.18 85.62 125.09 85.88C124.94 86.32 124.79 86.76 124.65 87.2C124.27 88.38 123.91 89.56 123.49 90.72C123.41 90.93 123.33 91.14 123.26 91.35C123.16 91.63 123.07 91.92 122.99 92.22C122.98 92.05 122.96 91.88 122.92 91.72C122.91 91.65 122.9 91.58 122.88 91.51C122.86 91.43 122.84 91.35 122.82 91.27C122.8 91.19 122.78 91.11 122.75 91.03C122.73 90.95 122.7 90.88 122.67 90.79C122.65 90.73 122.63 90.66 122.6 90.6C122.58 90.55 122.56 90.51 122.54 90.46C122.52 90.41 122.5 90.37 122.48 90.31C122.45 90.24 122.41 90.17 122.38 90.1C122.35 90.03 122.31 89.96 122.27 89.89C122.14 89.64 121.99 89.39 121.82 89.14C121.72 89 121.62 88.86 121.51 88.71C121.44 88.62 121.37 88.53 121.29 88.43C121.14 88.25 120.91 87.88 120.74 87.7L120.9 86.98C121.16 86.05 121.41 85.12 121.67 84.18C121.87 83.42 122.24 82.53 122.24 81.73C124.99 83.21 125.42 84.69 125.42 84.7V84.72Z" fill="#1B1B1B" stroke="white" stroke-width="0.32" stroke-miterlimit="10"/>
<path d="M120.85 100.89C120.55 101.43 120.28 101.82 119.84 102.08C119.63 102.21 119.39 102.27 119.15 102.27C118.56 102.27 118.01 101.92 117.79 101.39C117.52 100.76 117.54 100.1 117.83 99.39C117.83 99.38 117.84 99.36 117.84 99.35H117.85C118.08 98.83 118.61 98.5 119.2 98.5H119.21C119.34 98.5 119.46 98.51 119.58 98.54H119.61C120.14 98.62 120.65 98.99 120.89 99.49C121.12 99.94 121.12 100.44 120.86 100.89H120.85Z" fill="#1B1B1B" stroke="white" stroke-width="0.32" stroke-miterlimit="10"/>
<path d="M99.96 73.27C99.7 71.91 99.32 70.39 98.96 69.03C98.81 68.46 98.66 68.04 98.57 67.71C98.38 66.98 98.39 66.79 98.43 66.58C98.55 66.01 99.3 66.04 99.77 65.92C100.53 65.73 101.31 65.58 102.09 65.46C102.34 65.42 102.66 65.43 102.74 65.73C102.77 65.85 102.8 66.07 102.82 66.39C102.88 66.86 103.05 67.75 103.18 68.34C103.58 70.08 103.83 71.54 103.83 71.54C103.83 71.52 103.94 71.83 103.94 71.83C103.94 71.83 104.49 70.22 104.73 69.44C105.25 67.71 105.64 65.95 106.53 64.36L106.64 64.29C107.42 64.12 110.18 63.55 110.98 63.52L110.17 65.47C109.98 65.85 109.69 66.47 108.78 68.79C108.56 69.3 108.25 70.23 108.06 70.83C107.89 71.43 107.65 72.2 107.52 72.56C107.38 73.02 107.33 73.2 107.35 73.28C107.37 73.34 107.37 73.37 107.41 73.39C107.63 73.59 108.37 74.18 109.6 75.05C111.32 76.26 112.95 77.66 114.55 79.02C115.55 79.87 116.53 80.75 117.5 81.65C117.6 81.74 117.7 81.84 117.75 81.97C117.83 82.2 117.66 82.38 117.45 82.51C116.82 82.92 116.08 83.21 115.39 83.51C114.96 83.7 114.53 83.88 114.09 84.04C113.7 84.19 113.26 84.42 112.84 84.43C112.41 84.43 112.11 84.09 111.79 83.85L110.2 82.65C109.37 82.02 108.5 81.42 107.74 80.7C107.15 80.14 106.49 79.63 105.85 79.13C105.78 79.07 105.63 78.91 105.53 78.91C105.47 78.93 105.6 79.54 105.82 80.39C105.9 80.67 105.98 80.98 106.08 81.31C106.27 81.96 106.48 82.67 106.7 83.3C106.72 83.37 106.74 83.44 106.77 83.5C106.05 83.45 105.31 83.42 104.57 83.42C103.89 83.42 103.2 83.44 102.5 83.49L101.9 81.25L101.83 80.99C101.75 80.67 101.66 80.36 101.59 80.07C101.52 80.18 101.34 80.64 101.12 81.22C100.86 81.91 100.55 82.76 100.35 83.37C100.33 83.46 100.29 83.58 100.23 83.71C99.6 83.79 98.97 83.89 98.33 84.01C96.94 84.27 95.6201 84.59 94.3801 84.99C94.7501 83.94 94.95 82.77 94.93 81.66C95.07 81.31 95.19 80.99 95.29 80.75C95.33 80.64 95.37 80.56 95.4 80.49C95.53 80.13 95.87 79.33 96.15 78.7C96.41 78.14 96.62 77.67 96.79 77.28C96.93 76.96 97.32 76.35 97.19 76.01C97.15 75.92 97.08 75.84 97.01 75.77C95.87 74.66 94.69 73.6 93.46 72.6C92.86 72.11 92.2401 71.63 91.6201 71.16C91.0801 70.75 90.32 70.38 89.92 69.82C89.81 69.67 89.69 69.52 89.57 69.38C89.38 69.17 92.51 67.96 92.8 67.86C93.81 67.51 95.05 68.88 95.67 69.5C95.75 69.54 95.92 69.72 96.09 69.84C96.23 70 96.53 70.28 96.68 70.46C97 70.83 99.3 72.98 99.48 73.06C99.48 73.06 99.91 73.44 99.97 73.43L99.95 73.23L99.96 73.27Z" fill="#1B1B1B" stroke="white" stroke-width="0.32" stroke-miterlimit="10"/>
<path d="M91.94 101.55C91.76 101.58 91.55 101.67 91.33 101.82C90.57 102.31 89.73 103.36 89.9 104.41C89.82 103.9 89.28 103.17 88.56 102.73C88.1 102.45 87.57 102.28 87.04 102.37C87.06 102.37 87.09 102.37 87.11 102.36C87.13 102.35 87.16 102.35 87.19 102.34C87.22 102.33 87.26 102.32 87.29 102.31C87.34 102.29 87.4 102.27 87.45 102.24C87.48 102.23 87.5 102.21 87.53 102.2C87.55 102.19 87.57 102.18 87.59 102.16C87.61 102.15 87.64 102.13 87.66 102.12C87.7 102.09 87.74 102.07 87.78 102.04C87.81 102.02 87.8401 102 87.8701 101.98C87.9001 101.96 87.93 101.94 87.96 101.91C87.99 101.89 88.02 101.86 88.05 101.84C88.07 101.82 88.1001 101.8 88.1201 101.78C88.2501 101.66 88.3801 101.53 88.4901 101.39C88.5201 101.35 88.55 101.32 88.58 101.28C88.61 101.24 88.64 101.2 88.66 101.16C88.7 101.1 88.74 101.03 88.78 100.96C89.03 100.52 89.16 100.02 89.08 99.52C89.23 100.43 90.58 101.79 91.93 101.56L91.94 101.55Z" fill="white"/>
<path d="M121.03 68.79C119.43 69.06 116.41 71.85 116.86 74.61C116.57 72.88 113.8 69.99 111.04 70.44C112.89 70.13 115.66 67.38 115.21 64.62C115.52 66.47 118.27 69.24 121.03 68.79Z" fill="white"/>
<path d="M130.24 80.04C129.21 80.05 127.05 81.51 127.07 83.28C127.06 82.17 125.6 80.09 123.83 80.11C125.02 80.1 127.02 78.64 127 76.87C127.01 78.06 128.47 80.06 130.24 80.04Z" fill="white"/>
<path d="M130.29 68.65C130.29 68.75 130.28 68.86 130.28 68.97C130.19 70.97 129.11 72.96 127.15 74.76C126.44 75.42 125.65 76.02 124.8 76.58C124.4 76.85 123.98 77.1 123.55 77.34C121.87 78.27 119.94 79.02 117.82 79.58C117.67 79.43 117.52 79.29 117.37 79.15C116.93 78.73 116.52 78.42 116.12 78.15C115.73 77.88 115.58 77.77 115.26 77.43C116.14 77.25 117 77.05 117.81 76.82C118.14 76.73 118.47 76.63 118.78 76.52C121.41 75.66 123.62 74.41 125.36 72.81C126.36 71.89 127.56 70.47 127.63 68.86C127.71 67.53 126.97 66.07 125.67 64.94C122.25 61.97 116.63 60.89 112.7 60.33C107.93 59.65 102.97 59.7 97.97 60.49C91.09 61.6 85.58 63.56 81.6 66.34C80.91 66.82 80.25 67.34 79.63 67.89C79.07 68.38 78.53 68.91 78.04 69.47C77.81 69.74 77.59 70 77.38 70.27C77.29 70.38 77.22 70.48 77.13 70.59C76.71 71.16 76.33 71.76 75.99 72.41L75.72 72.9C76.14 73.05 77.7799 73.53 77.7799 73.53C78.0399 74.44 78.37 76.29 78.37 76.29C77.83 76.32 76.77 76.05 76.42 75.97L74.7799 75.38L74.67 75.9C73.72 79.97 74.56 84.2 76.99 87.56C78.73 89.67 80.94 91.49 83.58 92.98L83.97 93.19L84.21 92.81C84.37 92.54 84.55 92.29 84.74 92.04C84.8 91.94 84.89 91.84 84.97 91.74C85.73 91.78 86.02 91.8 87.34 91.99C87.5 92.02 87.68 92.04 87.88 92.08C87.72 92.32 87.5499 92.59 87.3899 92.84C87.0999 93.28 86.85 93.69 86.71 93.86L86.34 94.34L86.91 94.58C88.25 95.14 89.69 95.62 91.19 96.03C91.78 96.19 92.38 96.35 92.98 96.48C95.23 97.01 97.65 97.39 100.17 97.62C100.54 97.66 100.92 97.68 101.27 97.71C102.94 97.84 104.64 97.89 106.36 97.87C106.83 97.87 107.27 97.86 107.67 97.84C108.12 97.83 108.53 97.81 108.88 97.79C110.22 97.71 111.99 97.58 113.73 97.1C114.36 96.92 114.92 96.72 115.46 96.48C115.88 96.29 116.27 96.08 116.62 95.86C117.13 95.54 118.75 94.42 118.7 92.97C118.69 92.76 118.64 92.57 118.59 92.4C118.82 92.02 119.12 91.68 119.42 91.31C119.6 91.11 119.76 90.91 119.93 90.7C120.08 90.51 120.25 90.31 120.4 90.11C120.43 90.15 120.45 90.19 120.48 90.21L120.69 90.59C120.69 90.59 120.78 90.69 120.77 90.7L121.01 91.23C121.04 91.29 121.06 91.36 121.09 91.44C121.12 91.5 121.14 91.58 121.15 91.64L121.21 91.83C121.25 91.98 121.27 92.13 121.31 92.39C121.34 92.49 121.35 92.6 121.35 92.71V92.86C121.39 93.67 121.2 94.46 120.79 95.25C120.44 95.93 119.94 96.58 119.31 97.14C118.93 97.49 118.5 97.81 118.02 98.1C117.51 98.42 116.97 98.69 116.42 98.95C116.28 99.01 116.13 99.08 115.98 99.13C115.65 99.26 115.32 99.38 114.99 99.48C112.83 100.16 110.66 100.35 109.02 100.44C107.74 100.5 106.47 100.53 105.21 100.53C104.81 100.53 104.4 100.52 103.98 100.5C102.65 100.47 101.33 100.4 100.04 100.29C99.69 100.25 99.32 100.23 98.95 100.18C97.38 100.02 95.82 99.78 94.29 99.49C93.94 99.41 93.58 99.35 93.23 99.28C93.14 99.25 92.78 99.17 92.42 99.07C92.12 98.99 91.81 98.92 91.75 98.91L91.19 98.77C90.05 98.49 89.9 98.45 88.42 97.87C88 97.71 87.3499 97.52 86.7699 97.35C86.4399 97.25 86.14 97.16 85.92 97.1L85.63 97L85.42 97.23C84.9 97.81 84.84 98.61 84.8 99.3L84.7699 99.64C84.7199 100.17 84.76 100.7 84.81 101.21L84.84 101.35C85.42 104.63 87.76 106.98 89.63 108.39L90.0099 108.67C92.4899 110.49 95.38 111.75 98.29 112.7C101.02 113.59 103.85 114.19 106.7 114.57C107.4 114.66 108.11 114.74 108.81 114.81C109.16 114.85 109.48 115.01 109.71 115.29C109.94 115.57 110.04 115.91 110.01 116.26C109.93 116.94 109.38 117.46 108.68 117.46H108.55C102.9 116.92 94.85 115.34 88.47 110.84C85.05 108.41 82.82 105.22 82.22 101.82C81.89 100.03 82.03 98.11 82.61 96.21L82.82 95.59L82.47 95.4C82.32 95.32 82.18 95.24 82.04 95.16C79.19 93.52 76.77 91.52 74.84 89.15C71.82 85.04 70.85 79.83 72.17 74.84L72.2699 74.45L71.8899 74.29C71.2499 74.01 70.59 73.71 69.88 73.36C62.77 69.57 60.0399 63.72 62.7599 58.11C65.6799 52.05 71.74 50.48 77.08 49.09L78.44 48.72C78.55 48.69 78.6699 48.68 78.7799 48.68C79.0199 48.68 79.25 48.74 79.45 48.86C79.75 49.04 79.98 49.33 80.07 49.67C80.16 50.01 80.11 50.36 79.93 50.68C79.75 50.98 79.48 51.2 79.13 51.29C78.66 51.42 78.21 51.54 77.74 51.66C72.49 53.02 67.53 54.33 65.13 59.28C62.09 65.57 68.92 69.85 71.1 71.01C71.67 71.29 72.2199 71.55 72.7699 71.79L73.19 71.97L73.3899 71.57C73.8999 70.55 74.51 69.57 75.22 68.66C79.51 63.2 87.01 59.59 97.49 57.91C102.74 57.08 107.96 57.01 113.01 57.73C117.27 58.32 123.39 59.54 127.35 62.97C129.18 64.56 130.23 66.63 130.23 68.69L130.29 68.65Z" fill="white"/>
<path d="M99.41 145.41C98.37 145.41 96.16 146.87 96.16 148.66C96.16 147.54 94.7 145.41 92.91 145.41C94.11 145.41 96.16 143.95 96.16 142.16C96.16 143.36 97.62 145.41 99.41 145.41Z" fill="white"/>
<path d="M118.3 135.15C116.5 135.15 112.68 137.67 112.68 140.77C112.68 138.83 110.16 135.15 107.06 135.15C109.14 135.15 112.68 132.63 112.68 129.53C112.68 131.61 115.2 135.15 118.3 135.15Z" fill="white"/>
<path d="M126.2 115.98C125.24 115.98 123.22 117.31 123.22 118.96C123.22 117.93 121.89 115.98 120.24 115.98C121.34 115.98 123.22 114.65 123.22 113C123.22 114.1 124.55 115.98 126.2 115.98Z" fill="white"/>
<path d="M96.03 44.06C94.6 44.06 91.57 46.06 91.57 48.52C91.57 46.98 89.57 44.06 87.11 44.06C88.76 44.06 91.57 42.06 91.57 39.6C91.57 41.25 93.57 44.06 96.03 44.06Z" fill="white"/>
<path d="M106.28 37.7C105.67 37.7 104.39 38.55 104.39 39.59C104.39 38.94 103.54 37.7 102.5 37.7C103.2 37.7 104.39 36.85 104.39 35.81C104.39 36.51 105.24 37.7 106.28 37.7Z" fill="white"/>
<path d="M93.46 19.7C92.85 19.7 91.57 20.55 91.57 21.59C91.57 20.94 90.72 19.7 89.68 19.7C90.38 19.7 91.57 18.85 91.57 17.81C91.57 18.51 92.42 19.7 93.46 19.7Z" fill="white"/>
</svg>
