<svg width="199" height="232" viewBox="0 0 199 231" fill="none" xmlns="http://www.w3.org/2000/svg">
<path d="M240.01 17.52C237.78 17.52 235.61 17.74 233.51 18.16C229.12 7.98001 218.99 0.850006 207.2 0.850006C191.38 0.850006 178.55 13.68 178.55 29.5C178.55 30.03 178.57 30.55 178.6 31.08C178.41 31.08 178.22 31.07 178.03 31.07C163.36 31.07 151.46 42.96 151.46 57.64C151.46 72.32 163.35 84.21 178.03 84.21C178.2 84.21 178.38 84.21 178.55 84.2L240.02 84.21C258.43 84.21 273.36 69.28 273.36 50.87C273.36 32.46 258.43 17.53 240.02 17.53L240.01 17.52Z" fill="white"/>
<path d="M161.55 174.2C160.09 174.2 158.72 174.56 157.5 175.17C156.97 166.82 150.04 160.2 141.55 160.2C133.06 160.2 125.55 167.36 125.55 176.2C125.55 185.04 132.71 192.2 141.55 192.2H161.55C166.52 192.2 170.55 188.17 170.55 183.2C170.55 178.23 166.52 174.2 161.55 174.2Z" fill="white"/>
<path d="M41.55 39.2C43.7591 39.2 45.55 37.4092 45.55 35.2C45.55 32.9909 43.7591 31.2 41.55 31.2C39.3408 31.2 37.55 32.9909 37.55 35.2C37.55 37.4092 39.3408 39.2 41.55 39.2Z" fill="white"/>
<path d="M169.55 156.2C171.759 156.2 173.55 154.409 173.55 152.2C173.55 149.991 171.759 148.2 169.55 148.2C167.341 148.2 165.55 149.991 165.55 152.2C165.55 154.409 167.341 156.2 169.55 156.2Z" fill="white"/>
<path d="M147.05 24.2C147.878 24.2 148.55 23.5284 148.55 22.7C148.55 21.8716 147.878 21.2 147.05 21.2C146.222 21.2 145.55 21.8716 145.55 22.7C145.55 23.5284 146.222 24.2 147.05 24.2Z" fill="white"/>
<path d="M84.05 199.2C84.8784 199.2 85.55 198.528 85.55 197.7C85.55 196.872 84.8784 196.2 84.05 196.2C83.2216 196.2 82.55 196.872 82.55 197.7C82.55 198.528 83.2216 199.2 84.05 199.2Z" fill="white"/>
<path d="M199 220L198.984 235.5H0.5V179.428C5.33333 179.042 16.3 181.3 21.5 192.5C34.1667 191.333 57.5 196.4 49.5 226C63.6667 227.667 94.3 231 103.5 231C115 231 150.5 231.5 199 220Z" fill="white" stroke="white"/>
</svg>
