<svg width="137" height="75" viewBox="0 0 137 75" fill="none" xmlns="http://www.w3.org/2000/svg">
<path d="M60.02 26.84C58.53 26.84 57.08 26.99 55.68 27.27C52.75 20.47 45.99 15.71 38.11 15.71C27.55 15.71 18.98 24.27 18.98 34.84C18.98 35.19 18.99 35.54 19.01 35.89C18.88 35.89 18.76 35.89 18.63 35.89C8.83 35.89 0.890015 43.83 0.890015 53.63C0.890015 63.43 8.83 71.37 18.63 71.37C18.75 71.37 18.86 71.37 18.98 71.37H60.02C72.31 71.37 82.28 61.4 82.28 49.11C82.28 36.82 72.31 26.85 60.02 26.85V26.84Z" fill="white"/>
<path d="M135.94 53.52C134.79 50.59 133.21 48.38 130.57 46.99C126.37 44.78 121.99 43 117.12 43.05C115.11 43.07 114.38 42.63 115.04 40.38C115.79 37.82 116.41 35.24 115.38 32.59C115.25 32.25 115.4 31.81 115.34 31.43C114.94 28.96 115 26.4 113.61 24.15C111.97 21.5 110.07 19.05 107.92 16.82C106.21 15.04 104.13 13.43 101.82 12.81C97.16 11.56 87.75 9.40001 83.07 8.26001C80 7.51001 76.93 6.76001 73.84 6.11001C71.63 5.64001 69.22 5.71001 67.18 4.87001C64.86 3.91001 62.46 3.73 60.1 3.2C58.52 2.85 56.83 2.83001 55.36 2.25001C53.76 1.61001 52.17 1.32001 50.5 1.17001C50.05 1.13001 49.62 0.91001 49.18 0.87001C48.28 0.81001 47.37 0.720007 46.48 0.820007C45.46 0.940007 44.79 1.51001 44.41 2.58001C43.72 4.50001 44.05 6.26001 44.88 8.00001C45.72 9.74001 46.61 11.45 47.5 13.23C45.05 15.68 43.45 18.56 43.1 21.85C41.47 22.43 39.96 22.92 38.49 23.5C36.78 24.18 35.94 25.65 35.41 27.29C35.25 27.79 35.3 28.5 35.55 28.95C36.47 30.55 37.76 31.81 39.43 32.63C40.35 33.09 41.31 33.48 42.21 33.99C45.36 35.78 48.5 37.59 51.61 39.43C52.37 39.88 53.04 40.5 53.75 41.03C53.93 41.17 54.09 41.37 54.29 41.43C56.23 41.95 57.69 43.22 59.18 44.45C59.41 44.64 59.67 44.78 59.93 44.93C60.77 45.4 61.7 45.75 62.44 46.34C64.96 48.34 67.76 49.94 70.25 52.04C72.74 54.13 75.68 55.81 78.66 57.15C81.68 58.52 84.85 59.82 88.32 59.66C90.31 59.57 92.3 59.39 94.3 59.36C99 59.28 102.86 57.18 106.26 54.21C108.03 52.66 110 51.21 110.82 48.9C113.1 49.1 115.22 49.24 117.33 49.47C118.49 49.6 119.64 49.81 120.76 50.12C121.23 50.25 121.83 50.31 122.18 50.84C122.43 51.06 122.64 51.32 122.79 51.6C122.99 51.95 123.08 52.31 123.14 52.67C123.21 52.85 123.25 53.04 123.28 53.23C123.35 53.52 123.44 53.78 123.45 54.14C123.5 54.47 123.5 54.84 123.46 55.29C123.38 56.31 123.22 56.92 122.84 57.34C122.66 57.99 122.37 58.6 121.95 59.18C121.82 59.36 121.69 59.55 121.55 59.73C121.4 60.03 121.22 60.33 121.01 60.61C120.84 61.05 120.58 61.49 120.27 61.93C120.01 62.3 119.8 62.71 119.6 63.11C118.82 64.7 118.31 66.32 118.48 68.15C118.68 70.32 121.02 73.41 123.14 73.84C128.3 74.88 132.42 73.08 134.56 68.35C136.65 63.74 138.02 58.85 135.93 53.53L135.94 53.52ZM56.15 27.85C55.88 30.84 52.44 31.73 50.48 30.93C49.38 30.49 48.99 29.49 48.63 28.56C47.98 26.9 47.68 25.18 49.1 23.68C50.33 22.38 51.66 22 53.03 22.56C55.25 23.47 56.24 24.82 56.2 26.96C56.19 27.21 56.17 27.53 56.15 27.85ZM58.49 19.41C55.41 19.84 52.48 16.63 53.2 13.61C53.68 11.59 54.63 9.80001 56.57 8.92001C59.69 7.50001 63.29 10.24 63.24 13.87C63.2 16.58 61.09 19.05 58.49 19.41Z" fill="#1B1B1B"/>
<path d="M63.24 13.87C63.2 16.58 61.09 19.05 58.49 19.41C55.41 19.84 52.48 16.63 53.2 13.61C53.68 11.59 54.63 9.8 56.57 8.92C59.69 7.5 63.29 10.24 63.24 13.87ZM61.44 13.13C61.44 11.81 60.1 10.34 58.95 10.4C57.34 10.47 55.61 12.22 55.59 13.78C55.57 15.51 56.76 16.96 58.24 17C59.96 17.05 61.45 15.25 61.45 13.14L61.44 13.13Z" fill="white"/>
<path d="M56.2 26.96C56.19 27.21 56.17 27.53 56.15 27.85C55.88 30.84 52.44 31.73 50.48 30.93C49.38 30.49 48.99 29.49 48.63 28.56C47.98 26.9 47.68 25.18 49.1 23.68C50.33 22.38 51.66 22 53.03 22.56C55.25 23.47 56.24 24.82 56.2 26.96ZM55.12 26.27C55.07 25.04 53.96 23.67 53.01 23.67C51.38 23.67 49.58 25.2 49.66 26.51C49.77 28.32 50.95 29.47 52.59 29.38C54.03 29.3 55.18 27.89 55.12 26.28V26.27Z" fill="white"/>
<path d="M61.44 13.13C61.44 15.24 59.96 17.04 58.23 16.99C56.75 16.95 55.56 15.51 55.58 13.77C55.6 12.21 57.33 10.46 58.94 10.39C60.09 10.34 61.43 11.81 61.43 13.12L61.44 13.13Z" fill="black"/>
<path d="M55.12 26.27C55.18 27.89 54.04 29.29 52.59 29.37C50.95 29.46 49.77 28.31 49.66 26.5C49.58 25.2 51.38 23.67 53.01 23.66C53.96 23.66 55.07 25.03 55.12 26.26V26.27Z" fill="black"/>
</svg>
