<svg width="199" height="196" viewBox="0 0 199 194" fill="none" xmlns="http://www.w3.org/2000/svg">
<path d="M1 195H199V139.5C159.333 149.833 64.2 175.4 1 195Z" fill="white" stroke="white"/>
<path d="M218.29 27C216.71 27 215.18 27.16 213.69 27.45C210.58 20.24 203.41 15.2 195.06 15.2C183.86 15.2 174.78 24.28 174.78 35.48C174.78 35.85 174.79 36.23 174.81 36.6C174.68 36.6 174.54 36.59 174.41 36.59C164.02 36.59 155.6 45.01 155.6 55.4C155.6 65.79 164.02 74.21 174.41 74.21C174.53 74.21 174.66 74.21 174.78 74.21H218.29C231.32 74.21 241.89 63.64 241.89 50.61C241.89 37.58 231.32 27.01 218.29 27.01V27Z" fill="white"/>
<path d="M153.77 126.2C155.979 126.2 157.77 124.409 157.77 122.2C157.77 119.991 155.979 118.2 153.77 118.2C151.561 118.2 149.77 119.991 149.77 122.2C149.77 124.409 151.561 126.2 153.77 126.2Z" fill="white"/>
<path d="M154.27 6.20001C155.098 6.20001 155.77 5.52844 155.77 4.70001C155.77 3.87158 155.098 3.20001 154.27 3.20001C153.442 3.20001 152.77 3.87158 152.77 4.70001C152.77 5.52844 153.442 6.20001 154.27 6.20001Z" fill="white"/>
<path d="M30.27 31.2C38.8304 31.2 45.77 24.2604 45.77 15.7C45.77 7.1396 38.8304 0.200012 30.27 0.200012C21.7096 0.200012 14.77 7.1396 14.77 15.7C14.77 24.2604 21.7096 31.2 30.27 31.2Z" fill="white"/>
<path d="M29.95 145.9C28.49 145.9 27.12 146.26 25.9 146.87C25.37 138.52 18.44 131.9 9.95001 131.9C1.46001 131.9 -6.04999 139.06 -6.04999 147.9C-6.04999 156.74 1.11001 163.9 9.95001 163.9H29.95C34.92 163.9 38.95 159.87 38.95 154.9C38.95 149.93 34.92 145.9 29.95 145.9Z" fill="white"/>
<path d="M62.42 67.42C62.85 67.07 63.22 66.59 63.7 66.38C75.09 61.56 86.16 62.15 96.88 68.39C102.61 71.73 108.81 73.13 115.41 72.87C119.66 72.7 123.74 71.77 127.64 70.07C128.84 69.55 129.83 70.21 129.84 71.51C129.84 83.28 129.84 95.04 129.84 106.81C129.84 107.58 129.51 108.09 128.81 108.41C123.4 110.89 117.73 111.93 111.79 111.59C105.8 111.25 100.3 109.45 95.14 106.39C89.5 103.04 83.31 101.75 76.78 102.02C72.55 102.19 68.49 103.12 64.61 104.82C63.67 105.23 63.15 105.03 62.4 104.05C62.4 91.84 62.4 79.64 62.4 67.43L62.42 67.42ZM128.24 79.69C128.11 79.66 128 79.63 127.89 79.62C124.49 79.17 122.04 77.42 120.6 74.29C120.41 73.88 120.13 73.99 119.84 74.02C118.53 74.16 117.23 74.37 115.92 74.44C108.87 74.83 102.21 73.4 96.13 69.77C90.32 66.3 84.06 64.66 77.32 64.85C75.65 64.9 73.98 65.13 72.27 65.28C72.77 68.09 72.29 70.54 70.62 72.7C68.96 74.84 66.73 75.96 64.02 76.18V94.67C67.85 95.23 70.42 97.34 71.72 100.89C73.59 100.72 75.39 100.46 77.2 100.41C84.09 100.2 90.55 101.76 96.49 105.32C102.79 109.1 109.64 110.52 116.92 109.95C118 109.87 119.07 109.67 120.2 109.53C119.49 106.71 119.89 104.16 121.52 101.86C123.15 99.56 125.45 98.39 128.24 98.11V79.7V79.69ZM128.27 99.74C123.15 100.06 120.38 105.29 121.83 109.14C123.97 108.67 126.02 107.95 128.01 107.02C128.16 106.95 128.26 106.64 128.26 106.44C128.28 105.12 128.27 103.81 128.27 102.49C128.27 101.57 128.27 100.66 128.27 99.74ZM70.61 65.51C68.48 66.29 66.41 67.03 64.35 67.82C64.18 67.88 64.02 68.2 64.01 68.41C63.98 69.68 63.99 70.95 63.99 72.22C63.99 72.98 63.99 73.75 63.99 74.51C68.25 74.44 71.8 70.08 70.6 65.51H70.61ZM64.07 96.32V103.24C66.1 102.56 68.09 101.9 70.07 101.23C69.61 98.85 66.83 96.57 64.07 96.32ZM122.1 73.68C122.92 76.02 125.74 78.02 128.22 78V71.65C126.16 72.33 124.13 73.01 122.1 73.68Z" fill="black"/>
<path d="M128.24 79.69V98.1C125.46 98.37 123.16 99.54 121.52 101.85C119.89 104.15 119.49 106.7 120.2 109.52C119.08 109.67 118 109.86 116.92 109.94C109.63 110.51 102.79 109.09 96.49 105.31C90.55 101.75 84.09 100.19 77.2 100.4C75.39 100.46 73.58 100.71 71.72 100.88C70.42 97.33 67.86 95.22 64.02 94.66V76.17C66.72 75.95 68.96 74.83 70.62 72.69C72.29 70.54 72.77 68.08 72.27 65.27C73.98 65.12 75.65 64.88 77.32 64.84C84.06 64.65 90.32 66.29 96.13 69.76C102.22 73.39 108.87 74.82 115.92 74.43C117.23 74.36 118.53 74.15 119.84 74.01C120.13 73.98 120.41 73.87 120.6 74.28C122.03 77.41 124.49 79.16 127.89 79.61C128 79.62 128.1 79.65 128.24 79.68V79.69ZM96.09 100.08C103.06 100.08 108.76 94.44 108.77 87.54C108.77 80.43 103.14 74.79 96.04 74.79C89.12 74.79 83.48 80.51 83.49 87.53C83.5 94.4 89.21 100.09 96.09 100.08ZM78.22 84.93C78.72 84.93 79.09 84.75 79.14 84.21C79.18 83.71 78.9 83.43 78.42 83.36C75.93 83.01 73.43 83.06 70.94 83.41C70.45 83.48 70.12 83.76 70.18 84.3C70.25 84.84 70.63 85.03 71.13 84.97C73.49 84.67 75.85 84.59 78.22 84.94V84.93ZM117.79 91.82C118.97 91.72 120.13 91.63 121.29 91.53C121.84 91.48 122.16 91.19 122.08 90.62C122.01 90.08 121.61 89.89 121.12 89.96C118.8 90.27 116.48 90.22 114.17 89.92C113.65 89.85 113.24 89.99 113.13 90.56C113.04 91.04 113.38 91.42 114.01 91.48C115.27 91.61 116.54 91.7 117.79 91.81V91.82Z" fill="white"/>
<path d="M128.27 99.74C128.27 100.66 128.27 101.58 128.27 102.49C128.27 103.81 128.28 105.12 128.26 106.44C128.26 106.64 128.16 106.95 128.01 107.02C126.03 107.95 123.97 108.67 121.83 109.14C120.38 105.28 123.14 100.06 128.27 99.74Z" fill="white"/>
<path d="M70.61 65.51C71.81 70.08 68.26 74.44 64 74.51C64 73.75 64 72.99 64 72.22C64 70.95 63.98 69.68 64.02 68.41C64.02 68.21 64.19 67.89 64.36 67.82C66.42 67.04 68.49 66.29 70.62 65.51H70.61Z" fill="white"/>
<path d="M64.07 96.32C66.83 96.57 69.61 98.85 70.07 101.23C68.08 101.89 66.1 102.56 64.07 103.24V96.32Z" fill="white"/>
<path d="M122.1 73.68C124.13 73.01 126.16 72.34 128.22 71.65V78C125.74 78.02 122.92 76.02 122.1 73.68Z" fill="white"/>
<path d="M96.09 100.08C89.2 100.08 83.5 94.4 83.49 87.53C83.48 80.52 89.12 74.8 96.04 74.79C103.15 74.79 108.78 80.43 108.77 87.54C108.77 94.44 103.06 100.07 96.09 100.08ZM96.09 98.5C102.28 98.49 107.2 93.55 107.2 87.37C107.2 81.31 102.21 76.38 96.09 76.38C90.06 76.38 85.07 81.38 85.08 87.41C85.09 93.53 90.04 98.51 96.09 98.5Z" fill="black"/>
<path d="M78.22 84.93C75.86 84.59 73.49 84.66 71.13 84.96C70.63 85.02 70.25 84.84 70.18 84.29C70.11 83.75 70.44 83.47 70.94 83.4C73.43 83.05 75.92 83.01 78.42 83.35C78.9 83.42 79.19 83.7 79.14 84.2C79.09 84.74 78.72 84.93 78.22 84.92V84.93Z" fill="black"/>
<path d="M117.79 91.82C116.54 91.71 115.27 91.62 114.01 91.49C113.38 91.43 113.04 91.05 113.13 90.57C113.24 90 113.64 89.86 114.17 89.93C116.49 90.23 118.8 90.29 121.12 89.97C121.62 89.9 122.01 90.09 122.08 90.63C122.15 91.2 121.83 91.49 121.29 91.54C120.13 91.64 118.97 91.73 117.79 91.83V91.82Z" fill="black"/>
<path d="M96.09 98.5C90.03 98.51 85.09 93.53 85.08 87.41C85.07 81.37 90.05 76.38 96.09 76.38C102.21 76.38 107.2 81.31 107.2 87.37C107.2 93.55 102.28 98.49 96.09 98.5ZM95.3 80.67C94.63 80.93 94.01 81.1 93.47 81.41C91.71 82.42 91.15 84.55 92.15 86.24C92.76 87.27 93.71 87.8 94.83 88.1C95.02 88.15 95.31 88.38 95.31 88.53C95.35 89.82 95.33 91.11 95.33 92.41C94.12 92.27 93.4 91.59 93.19 90.42C93.1 89.92 92.86 89.59 92.32 89.63C91.78 89.67 91.59 90.04 91.62 90.55C91.68 91.8 92.34 92.71 93.36 93.33C93.95 93.69 94.62 93.9 95.32 94.21C95.35 94.72 95.22 95.49 96.13 95.49C97.04 95.49 96.86 94.69 96.95 94.14C99.39 93.43 100.52 92.31 100.59 90.54C100.66 88.7 99.69 87.66 96.95 86.63V82.46C98.19 82.68 98.86 83.32 99.04 84.43C99.13 84.96 99.37 85.31 99.95 85.24C100.5 85.18 100.66 84.78 100.62 84.29C100.48 82.68 99.5 81.73 98.1 81.13C97.73 80.97 97.32 80.88 96.93 80.75C96.89 80.14 97.01 79.45 96.14 79.38C95.59 79.34 95.4 79.65 95.28 80.68L95.3 80.67Z" fill="white"/>
<path d="M95.3 80.67C95.42 79.65 95.6099 79.33 96.1599 79.37C97.0299 79.44 96.91 80.13 96.95 80.74C97.34 80.86 97.75 80.95 98.12 81.12C99.51 81.73 100.5 82.67 100.64 84.28C100.68 84.78 100.52 85.17 99.9699 85.23C99.3999 85.3 99.15 84.95 99.06 84.42C98.88 83.31 98.1999 82.67 96.9699 82.45V86.62C99.7099 87.65 100.68 88.7 100.61 90.53C100.54 92.3 99.4099 93.42 96.9699 94.13C96.8799 94.68 97.06 95.48 96.15 95.48C95.24 95.48 95.37 94.72 95.34 94.2C94.64 93.89 93.96 93.68 93.38 93.32C92.36 92.7 91.71 91.79 91.64 90.54C91.61 90.03 91.8 89.66 92.34 89.62C92.88 89.58 93.12 89.91 93.21 90.41C93.41 91.58 94.14 92.26 95.35 92.4C95.35 91.1 95.37 89.81 95.33 88.52C95.33 88.37 95.04 88.14 94.85 88.09C93.73 87.79 92.78 87.26 92.17 86.23C91.17 84.54 91.73 82.41 93.49 81.4C94.03 81.09 94.65 80.92 95.32 80.66L95.3 80.67ZM95.32 82.45C94.05 82.62 93.2 83.5 93.25 84.56C93.3 85.58 94.18 86.41 95.32 86.49V82.45ZM96.96 88.38V92.42C98.18 92.28 99.03 91.42 99.02 90.39C99.02 89.35 98.13 88.48 96.96 88.38Z" fill="black"/>
<path d="M95.32 82.45V86.49C94.18 86.41 93.3 85.57 93.25 84.56C93.2 83.5 94.05 82.62 95.32 82.45Z" fill="white"/>
<path d="M96.96 88.38C98.14 88.48 99.02 89.35 99.02 90.39C99.02 91.43 98.17 92.28 96.96 92.42V88.38Z" fill="white"/>
<path d="M112.58 116.35C112.68 120.6 112.71 140.14 112.69 162.78C112.69 162.78 112.683 162.783 112.67 162.79C102.34 165.88 91.8 169.07 81.15 172.27C81.04 172.3 80.93 172.34 80.82 172.37L80.23 116.61C70.34 110.73 78.36 98.17 84.51 101.64C84.49 101.53 84.47 101.44 84.46 101.33C82.33 88.83 95.75 90.19 96.81 94.42C96.87 94.37 96.93 94.32 97 94.28C100.88 91.41 110.71 89.54 110.71 101.11H110.84C121.65 100.96 118.44 116.35 112.58 116.35Z" fill="#1B1B1B"/>
<path d="M87.16 112.66C87.16 112.66 87.1 112.66 87.07 112.65C86.87 112.6 86.75 112.39 86.8 112.19C88.59 105.29 84.15 101.24 84.11 101.2C83.96 101.06 83.94 100.83 84.08 100.67C84.22 100.51 84.46 100.5 84.61 100.64C84.66 100.68 89.4401 105.02 87.5301 112.38C87.4901 112.55 87.33 112.66 87.17 112.66H87.16Z" fill="#D6D6D5"/>
<path d="M106.03 108.84C105.87 108.84 105.73 108.74 105.67 108.58C105.6 108.38 105.71 108.17 105.91 108.11C110.4 106.61 110.47 101.04 110.47 100.98C110.47 100.77 110.64 100.61 110.85 100.61C111.06 100.61 111.23 100.78 111.23 100.99C111.23 101.05 111.17 107.16 106.16 108.83C106.12 108.84 106.08 108.85 106.04 108.85L106.03 108.84Z" fill="#D6D6D5"/>
<path d="M96.3 105.95C96.21 105.95 96.12 105.92 96.05 105.86C95.89 105.72 95.88 105.49 96.02 105.33C100.07 100.78 96.67 94.46 96.64 94.4C96.54 94.22 96.61 93.99 96.79 93.89C96.97 93.79 97.2 93.86 97.3 94.04C97.34 94.11 100.99 100.88 96.58 105.83C96.51 105.91 96.4 105.96 96.3 105.96V105.95Z" fill="#D6D6D5"/>
</svg>
