<?xml version="1.0" encoding="UTF-8"?>
<svg id="_Слой_2" data-name="Слой 2" xmlns="http://www.w3.org/2000/svg" xmlns:xlink="http://www.w3.org/1999/xlink" viewBox="0 0 210.13 429.16">
  <defs>
    <style>
      .cls-1 {
        fill: #1b1b1b;
      }

      .cls-1, .cls-2, .cls-3, .cls-4, .cls-5, .cls-6 {
        stroke-width: 0px;
      }

      .cls-2 {
        fill: #da1c06;
      }

      .cls-3 {
        fill: url(#_Безымянный_градиент_20-2);
      }

      .cls-4 {
        fill: #fff;
      }

      .cls-5 {
        fill: url(#_Безымянный_градиент_20);
      }

      .cls-6 {
        fill: #da1f07;
      }
    </style>
    <linearGradient id="_Безымянный_градиент_20" data-name="Безымянный градиент 20" x1="-23.14" y1="447.85" x2="189.54" y2="60.87" gradientUnits="userSpaceOnUse">
      <stop offset="0" stop-color="#da00c2"/>
      <stop offset=".31" stop-color="#da0c47"/>
      <stop offset=".4" stop-color="#da0f29"/>
      <stop offset=".51" stop-color="#da1505"/>
      <stop offset=".82" stop-color="#de5314"/>
      <stop offset="1" stop-color="#e1741c"/>
    </linearGradient>
    <linearGradient id="_Безымянный_градиент_20-2" data-name="Безымянный градиент 20" x1="89.04" y1="139.83" x2="118.68" y2="139.83" xlink:href="#_Безымянный_градиент_20"/>
  </defs>
  <g id="TEXTS">
    <g>
      <path class="cls-5" d="M210.13,41.49v346.18c0,22.91-18.67,41.49-41.69,41.49H41.69c-15.48,0-28.99-8.4-36.18-20.86-3.51-6.07-5.51-13.12-5.51-20.63V41.49C0,18.57,18.67,0,41.69,0h126.75c23.02,0,41.69,18.57,41.69,41.49Z"/>
      <g>
        <g>
          <g>
            <g>
              <path class="cls-4" d="M120.94,147.87c0,2.99-.03,5.98-.02,8.96,0,.48-.14.75-.57.99-5.31,2.96-10.62,5.95-15.94,8.9-.27.15-.78.14-1.05-.01-5.3-2.99-10.58-6.01-15.88-9.01-.42-.24-.59-.5-.59-.99.05-6.03.06-12.06.12-18.1,0-.27.22-.65.44-.78,5.37-3.04,10.75-6.06,16.14-9.05.22-.12.61-.12.83,0,5.37,3.03,10.73,6.08,16.08,9.16.24.14.43.57.43.87.02,3.02,0,6.03-.01,9.05,0,0,0,0,.01,0Z"/>
              <path class="cls-4" d="M89.04,137.96c1.79.37,3.55.61,5.24,1.1,3.68,1.07,6.78,3,8.41,6.63.67,1.48.97,3.12,1.4,4.57,1.22-8,6.69-11.34,14.58-12.12-1.77-.33-3.3-.51-4.77-.92-4.35-1.23-8.37-2.94-9.93-7.81-.5,2.13-1.81,3.63-3.52,4.83-2.46,1.74-5.25,2.69-8.18,3.24-1.06.2-2.15.32-3.24.48Z"/>
              <path class="cls-4" d="M95.92,124.33c-.64-3.02-2.35-4.77-5.38-5.47,3.05-.7,4.78-2.45,5.4-5.43.63,2.93,2.29,4.74,5.34,5.45-2.95.73-4.72,2.45-5.36,5.46Z"/>
              <path class="cls-4" d="M112.6,125.07c2.03-.57,3.3-1.84,3.8-4.05.53,2.16,1.75,3.51,3.83,4.06-2.1.53-3.29,1.88-3.85,4.01-.5-2.16-1.71-3.47-3.78-4.02Z"/>
              <path class="cls-3" d="M89.04,137.96c1.09-.16,2.17-.28,3.24-.48,2.93-.55,5.72-1.5,8.18-3.24,1.7-1.2,3.01-2.7,3.52-4.83,1.57,4.88,5.58,6.59,9.93,7.81,1.47.41,3,.59,4.77.92-7.89.77-13.36,4.11-14.58,12.12-.43-1.44-.73-3.09-1.4-4.57-1.63-3.63-4.73-5.56-8.41-6.63-1.69-.49-3.46-.73-5.24-1.1Z"/>
            </g>
            <path class="cls-4" d="M96.8,149.3h0"/>
            <path class="cls-4" d="M92.1,148.59s-.08.03-.12.02c-.16-.05-.33-.08-.49-.08-.59-.02-1.18.2-1.6.62-.13.13-.34-.07-.21-.2.13-.13.28-.25.44-.35.57-.34,1.28-.45,1.92-.27,0,0,.01,0,.02,0,.35-.81.37-1.66.03-2.4-.34-.76-1.02-1.29-1.87-1.47-.01.04-.04.07-.09.09-.17.05-.32.11-.47.19-.55.29-1,.75-1.27,1.31-.03.07-.13.09-.19.06-.07-.04-.09-.12-.06-.19.08-.17.19-.34.3-.49.38-.52.92-.91,1.53-1.12-.01-.01-.03-.03-.04-.05-.03-.03-.06-.07-.08-.12-.03-.04-.05-.08-.08-.12-.12-.18-.26-.33-.41-.47-.06-.06-.12-.11-.18-.16-.3-.24-.65-.41-1.03-.51-.14-.04-.28-.06-.42-.08-.07,0-.14-.02-.2-.02-.11,0-.23,0-.34,0-.04,0-.07,0-.11,0-.03,0-.06,0-.09,0-.49.06-.95.25-1.34.56-.42.33-.79.72-1.15,1.09-.68.71-1.11,1.05-1.17,2.09s.04,2.17.31,3.21c.22.84.47,1.67.69,2.52.34,1.32,1.36,1.93,2.55,2.43.35.15.74.22,1.13.22.06,0,.13,0,.19,0,.02,0,.04,0,.05,0,.1,0,.2-.02.29-.04.06-.01.12-.03.19-.04.44-.11.83-.32,1.15-.6.06-.05.11-.1.16-.15.13-.14.25-.29.35-.45.05-.08.1-.17.14-.25.02-.05.05-.11.07-.17.02-.04.03-.08.05-.12-.21.02-.43.04-.64.03-.38-.02-.77-.11-1.08-.33-.29-.21-.5-.5-.56-.86-.01-.08.07-.14.14-.15.08,0,.13.06.15.14,0,.05.04.16.07.21.03.07.08.15.13.2.18.22.45.37.72.44.38.1.78.07,1.17.02.04,0,.07,0,.09.03.09-.1.21-.18.37-.25.86-.39,1.35-1.12,1.43-2.11.05-.65-.12-1.27-.53-1.87Z"/>
            <path class="cls-4" d="M116,148.71s.08.03.12.02c.16-.05.33-.08.49-.08.59-.02,1.18.19,1.6.61.13.13.34-.07.21-.2-.13-.13-.28-.25-.45-.35-.57-.34-1.28-.45-1.92-.26,0,0-.01,0-.02,0-.35-.81-.37-1.66-.04-2.4.34-.76,1.02-1.3,1.86-1.48.01.04.04.07.09.09.17.05.32.11.48.19.55.29,1,.74,1.27,1.3.03.07.13.09.19.06.07-.04.09-.13.06-.19-.08-.17-.19-.34-.3-.49-.38-.52-.93-.91-1.53-1.11.01-.01.03-.03.04-.05.03-.03.06-.07.08-.12.03-.04.05-.08.08-.12.12-.18.26-.33.41-.47.06-.06.12-.11.18-.16.3-.24.65-.41,1.03-.51.14-.04.28-.06.42-.08.07,0,.14-.02.2-.02.11,0,.23,0,.34,0,.04,0,.07,0,.11,0,.03,0,.06,0,.09,0,.49.06.95.25,1.35.56.42.33.79.71,1.15,1.08.69.71,1.11,1.05,1.18,2.08s-.03,2.17-.3,3.21c-.22.84-.47,1.68-.68,2.52-.34,1.32-1.35,1.94-2.55,2.44-.35.15-.74.23-1.13.22-.06,0-.13,0-.19,0-.02,0-.04,0-.05,0-.1,0-.2-.02-.29-.04-.06-.01-.12-.03-.19-.04-.44-.11-.83-.32-1.15-.6-.06-.05-.11-.1-.16-.15-.13-.14-.25-.29-.35-.45-.05-.08-.1-.17-.14-.25-.02-.05-.05-.11-.07-.17-.02-.04-.03-.08-.05-.12.21.02.43.04.64.03.38-.02.77-.11,1.08-.33.29-.21.5-.5.56-.86.01-.08-.07-.14-.14-.15-.08,0-.13.06-.15.14,0,.05-.04.16-.07.21-.03.07-.08.15-.13.2-.18.22-.45.37-.72.45-.38.1-.78.07-1.17.02-.04,0-.07,0-.09.03-.09-.1-.22-.18-.37-.25-.86-.39-1.36-1.11-1.44-2.1-.05-.65.12-1.27.52-1.87Z"/>
          </g>
          <path class="cls-2" d="M120.75,142.89s.09,0,.14,0c.04,0,.07,0,.11,0,.03,0,.06,0,.09,0,.49.06.95.25,1.35.56.42.33.79.71,1.15,1.08.69.71,1.11,1.05,1.18,2.08.07,1.08-.03,2.17-.3,3.21-.22.84-.47,1.68-.68,2.52-.34,1.32-1.35,1.94-2.55,2.44-.35.15-.73.22-1.11.22,0,0-.01,0-.02,0,0,0,0,0,0,0-.06,0-.12,0-.18,0-.02,0-.04,0-.05,0-.1,0-.2-.02-.29-.04-.06-.01-.12-.03-.19-.04-.44-.11-.83-.32-1.15-.6-.06-.05-.11-.1-.16-.15-.13-.14-.25-.29-.35-.45-.05-.08-.1-.17-.14-.25-.02-.05-.05-.11-.07-.17-.02-.04-.03-.08-.05-.12.17.02.34.03.52.03.04,0,.09,0,.13,0,.38-.02.77-.11,1.08-.33.29-.21.5-.5.56-.86.01-.08-.07-.14-.14-.15,0,0,0,0,0,0-.08,0-.13.06-.14.14,0,.05-.04.16-.07.21-.03.07-.08.15-.13.2-.18.22-.45.37-.72.45-.19.05-.38.06-.57.06-.2,0-.4-.02-.6-.04,0,0,0,0-.01,0-.03,0-.06.01-.08.03-.09-.1-.21-.18-.37-.25-.86-.39-1.36-1.11-1.44-2.1-.05-.65.12-1.27.52-1.87.02.02.05.03.08.03.01,0,.02,0,.03,0,.16-.05.33-.08.49-.08.03,0,.05,0,.08,0,.56,0,1.12.21,1.52.61.03.03.06.04.1.04.11,0,.21-.14.11-.24-.13-.13-.28-.25-.45-.35-.38-.23-.83-.35-1.27-.35-.22,0-.44.03-.65.09,0,0-.01,0-.02,0-.35-.81-.37-1.66-.04-2.4.34-.76,1.02-1.3,1.86-1.48.01.04.04.07.09.09.17.05.32.11.48.19.55.29,1,.74,1.27,1.3.02.05.08.07.13.07.02,0,.05,0,.07-.02.07-.04.09-.13.06-.19-.08-.17-.19-.34-.3-.49-.38-.52-.93-.91-1.53-1.11.01-.01.03-.03.04-.05.03-.03.06-.07.08-.12.03-.04.05-.08.08-.12.12-.18.26-.33.41-.47.06-.06.12-.11.18-.16.3-.24.65-.41,1.03-.51.14-.04.28-.06.42-.08.07,0,.14-.02.2-.02.07,0,.13,0,.2,0M120.75,141.99c-.09,0-.17,0-.26,0-.07,0-.16.01-.25.02-.18.02-.36.06-.53.1-.51.13-.97.36-1.37.67-.08.06-.17.14-.25.22-.18.17-.36.38-.52.6-.03.05-.06.09-.08.12-1.05.28-1.88.98-2.32,1.95-.39.87-.42,1.85-.09,2.8-.39.69-.56,1.41-.49,2.16.11,1.31.81,2.33,1.96,2.85.07.03.09.05.09.05h0s0,.01,0,.01l.03.06c.03.07.06.15.09.23.06.13.12.25.19.36.13.21.29.42.47.6.07.07.15.14.22.21.42.37.95.64,1.51.78.08.02.17.04.25.06.11.02.24.04.37.05,0,0,.06,0,.11,0,.04,0,.12,0,.2,0,.52,0,1.03-.1,1.48-.29,1.27-.53,2.63-1.31,3.07-3.04.11-.42.22-.84.34-1.26.12-.42.23-.84.34-1.26.29-1.14.4-2.32.33-3.49-.08-1.28-.63-1.84-1.26-2.48l-.17-.17c-.38-.39-.77-.79-1.24-1.16-.54-.42-1.14-.67-1.8-.75-.04,0-.09-.01-.14-.01-.01,0-.07,0-.12,0-.06,0-.12,0-.19,0h0Z"/>
          <path class="cls-6" d="M87.35,142.79c.06,0,.13,0,.19,0,.07,0,.14.01.2.02.14.02.28.04.42.08.39.1.73.27,1.03.51.06.05.13.1.18.16.15.14.28.3.41.47.03.04.05.08.08.12.03.04.06.08.08.12.01.02.03.03.04.05-.61.21-1.15.6-1.53,1.12-.12.16-.22.32-.3.49-.03.07-.01.16.06.19.02.01.04.02.07.02.05,0,.1-.03.13-.07.27-.56.72-1.02,1.27-1.31.15-.08.31-.14.47-.19.05-.02.08-.05.09-.09.85.18,1.52.71,1.87,1.47.33.74.32,1.59-.03,2.4,0,0-.01,0-.02,0-.21-.06-.43-.09-.65-.09-.45,0-.9.12-1.28.35-.16.1-.31.22-.44.35-.1.1,0,.24.11.24.03,0,.07-.01.1-.04.4-.4.96-.62,1.52-.62.03,0,.05,0,.08,0,.17,0,.33.03.49.08.01,0,.02,0,.03,0,.03,0,.06-.01.08-.03.41.6.58,1.22.53,1.87-.08.99-.58,1.72-1.43,2.11-.16.07-.28.15-.37.25-.02-.02-.05-.03-.08-.03,0,0,0,0-.01,0-.2.02-.41.04-.61.04-.19,0-.38-.02-.56-.06-.28-.07-.54-.22-.72-.44-.05-.06-.09-.13-.13-.2-.02-.05-.06-.16-.07-.21-.01-.07-.06-.14-.14-.14,0,0,0,0,0,0-.07,0-.15.07-.14.15.06.36.27.65.56.86.32.23.7.32,1.08.33.04,0,.08,0,.12,0,.17,0,.35-.01.52-.03-.02.04-.03.08-.05.12-.02.06-.04.11-.07.17-.04.09-.09.17-.14.25-.1.16-.22.31-.35.45-.05.05-.11.1-.16.15-.32.28-.71.49-1.15.6-.06.02-.12.03-.19.04-.1.02-.19.03-.29.04-.02,0-.04,0-.05,0-.06,0-.12,0-.19,0h0s-.02,0-.02,0c-.38,0-.76-.08-1.1-.22-1.19-.5-2.21-1.12-2.55-2.43-.22-.84-.47-1.68-.69-2.52-.27-1.05-.38-2.13-.31-3.21.06-1.04.49-1.38,1.17-2.09.36-.37.73-.75,1.15-1.09.4-.31.85-.5,1.34-.56.03,0,.06,0,.09,0,.04,0,.07,0,.11,0,.05,0,.1,0,.15,0M87.35,141.89c-.07,0-.13,0-.2,0-.05,0-.1,0-.16.01h0s-.06,0-.11.01c-.65.08-1.26.33-1.79.75-.47.37-.86.78-1.24,1.17l-.17.17c-.63.65-1.18,1.21-1.26,2.49-.07,1.18.04,2.35.34,3.49.11.42.23.84.34,1.26.12.42.23.84.34,1.26.45,1.73,1.81,2.51,3.08,3.04.45.19.95.29,1.45.29.11,0,.2,0,.28,0,0,0,0,0,0,0,.01,0,.06,0,.11-.01.09,0,.22-.02.35-.05.06-.01.15-.03.23-.05.56-.14,1.08-.42,1.51-.79.07-.06.14-.13.21-.2.18-.19.34-.39.47-.61.07-.11.13-.23.19-.35.04-.08.07-.16.1-.24l.02-.06h0s.01-.02.01-.02c0,0,0,0,0,0,0,0,.02-.02.09-.05,1.15-.52,1.85-1.54,1.96-2.85.06-.75-.11-1.47-.5-2.16.33-.95.29-1.93-.1-2.8-.44-.97-1.28-1.67-2.32-1.94-.02-.03-.05-.07-.07-.11-.17-.24-.35-.45-.54-.63-.07-.07-.16-.14-.25-.21-.39-.31-.85-.54-1.36-.66-.18-.04-.36-.08-.53-.1-.09-.01-.18-.02-.26-.02-.07,0-.16,0-.24,0h0Z"/>
        </g>
        <g>
          <path class="cls-1" d="M157.18,238.53l1.5-1.28,1.42-1.21,2.76-2.35v-.09s-.3-4.16-.3-4.16l-1.06-14.79-.21-2.93-.82.77s0,0,0,0l-7.65,7.19-1.5,1.41-1.59,1.5-.23-.31-2.55-2.85,2.3-3.53,1.23-1.89,8.94-13.73,1.17-1.8-3.59,1.64-12.53,5.73-9.87-11.52-1.26-1.47-8.68,9.94-1.68,1.93-.8.92-6,6.87h0s-.65.74-.65.74c-2.99-2.77-6.21-5.76-6.7-5.84-.55-.09-2.97-.67-4.74-1.09-.88-.21-1.6-.39-1.86-.45-.07-.02-.1-.03-.1-.03l-6.43,5.54-1.45,1.25-4.97,4.29-1.69.41-.18.04-5.74,1.38-.42.1-5.75,1.38-.13.12-.92-4.91c1.4-1.6,2.2-2.52,2.2-2.52l-.77-.76-11.64-11.51-.07.07-2.71,2.54-3.29,3.08-1.62,1.51-3.67-14.02-.53-2.03-10.66,1.49L2.93,227.05l.08,129.02v19.06c16.54-13.21,39.55-31.63,39.6-31.62.11.02,35.05-30.1,52.71-45.01,20.31-17.27,40.61-34.53,60.91-51.8,1.09-.92,2.17-1.85,3.26-2.77.43-.36.85-.72,1.27-1.08l-1.11-1.34-2.47-2.98ZM104.29,226.11l1.66-1.89.35.18-1.69,1.59-1.17,1.1.86-.98Z"/>
          <g>
            <path class="cls-1" d="M53.53,202.66c-.05-.54-.42-1.05-1.08-1.36-.23-.11-.71-.23-1.17-.28-.21-.02-.42-.03-.59-.02-.23.02-.4.08-.48.18s-.01,2.82.1,4.09c.02.27.09.49.1.58l.04-.05c.74-.34,1.9-1.13,2.48-1.73.41-.45.64-.97.6-1.42ZM57.45,215.18c-.01-.14-.02-.27-.08-.4-.34-1.08-1.32-1.45-2.38-1.57-.72-.08-1.48-.04-2.09-.02l-1.63.1.1.63c.07.31.23,1.52.38,2.65l.28,2.07.86-.08c.81-.07,2.28-.43,3.03-.73.92-.4,1.63-1.61,1.53-2.64ZM55.17,216.07c-.37.14-.97.31-1.51.43l-.03-.19-.04-.3c-.05-.36-.09-.67-.13-.95.44-.01.9-.02,1.31.03.61.07.76.22.76.22,0,0,0,.01.02.04h0c.02.23-.22.63-.39.72ZM53.53,202.66c-.05-.54-.42-1.05-1.08-1.36-.23-.11-.71-.23-1.17-.28-.21-.02-.42-.03-.59-.02-.23.02-.4.08-.48.18s-.01,2.82.1,4.09c.02.27.09.49.1.58l.04-.05c.74-.34,1.9-1.13,2.48-1.73.41-.45.64-.97.6-1.42ZM57.45,215.18c-.01-.14-.02-.27-.08-.4-.34-1.08-1.32-1.45-2.38-1.57-.72-.08-1.48-.04-2.09-.02l-1.63.1.1.63c.07.31.23,1.52.38,2.65l.28,2.07.86-.08c.81-.07,2.28-.43,3.03-.73.92-.4,1.63-1.61,1.53-2.64ZM55.17,216.07c-.37.14-.97.31-1.51.43l-.03-.19-.04-.3c-.05-.36-.09-.67-.13-.95.44-.01.9-.02,1.31.03.61.07.76.22.76.22,0,0,0,.01.02.04h0c.02.23-.22.63-.39.72ZM53.53,202.66c-.05-.54-.42-1.05-1.08-1.36-.23-.11-.71-.23-1.17-.28-.21-.02-.42-.03-.59-.02-.23.02-.4.08-.48.18s-.01,2.82.1,4.09c.02.27.09.49.1.58l.04-.05c.74-.34,1.9-1.13,2.48-1.73.41-.45.64-.97.6-1.42ZM57.45,215.18c-.01-.14-.02-.27-.08-.4-.34-1.08-1.32-1.45-2.38-1.57-.72-.08-1.48-.04-2.09-.02l-1.63.1.1.63c.07.31.23,1.52.38,2.65l.28,2.07.86-.08c.81-.07,2.28-.43,3.03-.73.92-.4,1.63-1.61,1.53-2.64ZM55.17,216.07c-.37.14-.97.31-1.51.43l-.03-.19-.04-.3c-.05-.36-.09-.67-.13-.95.44-.01.9-.02,1.31.03.61.07.76.22.76.22,0,0,0,.01.02.04h0c.02.23-.22.63-.39.72ZM57.45,215.18c-.01-.14-.02-.27-.08-.4-.34-1.08-1.32-1.45-2.38-1.57-.72-.08-1.48-.04-2.09-.02l-1.63.1.1.63c.07.31.23,1.52.38,2.65l.28,2.07.86-.08c.81-.07,2.28-.43,3.03-.73.92-.4,1.63-1.61,1.53-2.64ZM55.17,216.07c-.37.14-.97.31-1.51.43l-.03-.19-.04-.3c-.05-.36-.09-.67-.13-.95.44-.01.9-.02,1.31.03.61.07.76.22.76.22,0,0,0,.01.02.04h0c.02.23-.22.63-.39.72ZM53.53,202.66c-.05-.54-.42-1.05-1.08-1.36-.23-.11-.71-.23-1.17-.28-.21-.02-.42-.03-.59-.02-.23.02-.4.08-.48.18s-.01,2.82.1,4.09c.02.27.09.49.1.58l.04-.05c.74-.34,1.9-1.13,2.48-1.73.41-.45.64-.97.6-1.42ZM66.08,213.55v-.02c-.16-1.75-.45-2.6-1.4-4.14l-.02-.04c-1.09-1.68-2.35-2.8-4.1-3.61.34-.78.66-1.67.87-2.46.07-.29.13-.57.17-.82.12-.8.08-1.68.03-2.28-.05-.54-.1-1.09-.3-1.66v-.02c-.37-1-1.24-2.5-2.15-3.33-1.01-.95-3.35-2.3-4.58-2.76h-.04c-.81-.3-1.45-.5-2.24-.59-.84-.1-1.77-.04-3.1.08l-1.71.16c-.36.03-1.48.15-2.53.29-2.24.29-2.8.45-3.31.97l-.12.13c-.62.75-.63,1.73-.55,2.59l.09,1.01c.01.64.07,1.25.12,1.83.15,1.6.4,3.3.62,4.75v.03c.37,2.16.73,4.59,1.05,7.03l.15,1.68c.06.61.11,1.19.22,1.89h0c.19,1.15.33,2.18.43,3.24.04.42.07.86.1,1.32.03.48.07.98.11,1.48.02.2.03.43.04.66.01.27.03.54.05.83.08.91.21,1.81.39,2.74l.15,1.62c.08.87.7,1.94,2.19,2.11.19.02.36.03.47.03h.35c.09-.01.22-.02.36-.02.21,0,.46-.01.73-.04.91-.08,1.9-.22,2.78-.35.3-.04.59-.08.86-.12h.04c.65-.11,1.26-.21,1.87-.31.75-.07,1.53-.2,2.24-.36l.12-.03c1.2-.36,3.6-1.34,4.49-1.9l.04-.03c1.52-1,2.88-2.79,3.82-5.03.92-2.18,1.34-4.51,1.18-6.55ZM60.04,223.54c-.69.43-2.92,1.36-4.03,1.69-.67.15-1.39.26-2.06.32-.63.1-1.26.21-1.93.31-1.04.14-2.38.36-3.56.46-.41.04-.77.03-1.09.05-.12,0-.28,0-.43-.02-.25-.03-.49-.11-.51-.4l-.16-1.71c-.17-.9-.29-1.75-.38-2.65-.05-.49-.05-1-.09-1.49-.09-.95-.13-1.9-.21-2.8-.11-1.13-.25-2.21-.45-3.37-.1-.63-.15-1.17-.21-1.76l-.16-1.71c-.31-2.34-.67-4.81-1.06-7.14-.22-1.44-.47-3.1-.61-4.63-.05-.59-.11-1.17-.12-1.76l-.1-1.08c-.04-.5-.04-1,.12-1.2.25-.25,4.08-.65,4.67-.7l1.72-.16c1.33-.12,2.08-.15,2.71-.08.26.03.5.08.74.14.32.08.66.2,1.08.35,1.08.4,3.2,1.66,3.95,2.37.6.54,1.34,1.74,1.65,2.58.12.35.16.76.2,1.21.06.58.07,1.27-.01,1.82-.14.97-.8,2.71-1.34,3.72-.11.18-.19.34-.24.47-.04.1-.06.18-.06.24.02.23.3.29,1.05.59,1.8.7,2.93,1.64,3.93,3.19.8,1.29.99,1.87,1.12,3.31.29,3.62-1.66,8.21-4.15,9.85ZM57.37,214.78c-.34-1.08-1.32-1.45-2.38-1.57-.72-.08-1.48-.04-2.09-.02l-1.63.1.1.63c.07.31.23,1.52.38,2.65l.28,2.07.86-.08c.81-.07,2.28-.43,3.03-.73.92-.4,1.63-1.61,1.53-2.64-.01-.14-.02-.27-.08-.4ZM55.17,216.07c-.37.14-.97.31-1.51.43l-.03-.19-.04-.3c-.05-.36-.09-.67-.13-.95.44-.01.9-.02,1.31.03.61.07.76.22.76.22,0,0,0,.01.02.04h0c.02.23-.22.63-.39.72ZM53.53,202.66c-.05-.54-.42-1.05-1.08-1.36-.23-.11-.71-.23-1.17-.28-.21-.02-.42-.03-.59-.02-.23.02-.4.08-.48.18s-.01,2.82.1,4.09c.02.27.09.49.1.58l.04-.05c.74-.34,1.9-1.13,2.48-1.73.41-.45.64-.97.6-1.42Z"/>
            <path class="cls-4" d="M64.19,213.7c-.13-1.44-.32-2.02-1.12-3.31-1.01-1.55-2.14-2.49-3.93-3.19-.75-.29-1.03-.36-1.05-.59,0-.06.01-.14.06-.24.05-.12.13-.28.24-.47.54-1.01,1.2-2.75,1.34-3.72.09-.55.07-1.24.01-1.82-.04-.45-.08-.86-.2-1.21-.3-.83-1.05-2.04-1.65-2.58-.75-.71-2.87-1.97-3.95-2.37-.42-.15-.76-.26-1.08-.35-.25-.07-.49-.11-.74-.14-.63-.07-1.39-.04-2.71.08l-1.72.16c-.59.05-4.42.45-4.67.7-.16.2-.16.7-.12,1.2l.1,1.08c0,.59.06,1.18.12,1.76.14,1.53.38,3.2.61,4.63.4,2.33.76,4.8,1.06,7.14l.16,1.71c.05.59.1,1.13.21,1.76.2,1.16.34,2.24.45,3.37.08.9.12,1.85.21,2.8.04.5.04,1,.09,1.49.08.9.21,1.76.38,2.65l.16,1.71c.02.28.26.37.51.4.15.02.31.01.43.02.32-.03.68-.02,1.09-.05,1.17-.11,2.52-.32,3.56-.46.67-.11,1.3-.21,1.93-.31.68-.06,1.4-.18,2.06-.32,1.11-.33,3.34-1.26,4.03-1.69,2.49-1.64,4.44-6.23,4.15-9.85ZM50.41,205.86c0-.09-.07-.31-.1-.58-.12-1.26-.18-3.99-.1-4.09s.26-.16.48-.18c.17-.02.38,0,.59.02.46.05.94.17,1.17.28.66.3,1.03.81,1.08,1.36.04.45-.18.97-.6,1.42-.58.6-1.74,1.39-2.48,1.73l-.04.05ZM55.92,217.82c-.75.3-2.22.66-3.03.73l-.86.08-.28-2.07c-.15-1.12-.3-2.34-.38-2.65l-.1-.63,1.63-.1c.61-.02,1.37-.06,2.09.02,1.05.12,2.04.5,2.38,1.57.06.13.07.27.08.4.09,1.04-.61,2.24-1.53,2.64Z"/>
            <path class="cls-1" d="M106.38,223.35c-.11-.74-.54-1.22-.85-1.57-.04-.05-.09-.1-.14-.15-.09-.11-.18-.23-.27-.34-.77-.98-1.65-2.1-2.72-2.98-.59-.5-.8-.72-1.22-1.28l-.05-.07c-.59-.73-.92-1.12-1.63-1.78-1.18-1.19-1.91-1.93-2.25-2.26-.34-.36-.97-.97-1.58-1.53-.18-.17-.35-.33-.52-.48h-.01c-.94-.85-1.61-1.47-2.05-1.9.29-.61.7-1.55.99-2.27.58-1.28,1.01-2.16,1.27-2.62l.03-.05c1.59-3,2.11-3.88,2.41-4.35.34-.48.69-1.22.86-1.63.52-1.2.58-1.66.51-2.13-.06-.39-.39-1.69-2.2-1.9-.2-.02-.42-.03-.67-.03-.17,0-.43-.02-.62-.03-.08,0-.16,0-.22-.01h-.01c-.34-.02-1.37,0-2.34.09l-1.6.1-1.12.46-.45.39-.03.03c-.88.8-1.79,2.55-2.36,3.97-.04.07-.07.14-.11.22,0-.17-.01-.31-.02-.44.03-.57.02-.96-.03-1.27-.17-1.16-.97-1.93-2.14-2.06-.35-.04-.72-.02-1.19,0l-.17.02c-.31.05-.62.05-.73.04h-.04s-.09-.02-.14-.03c-.38-.04-.71,0-1,.05-.27.04-.6.09-1.01.22-.11.04-.29.06-.41.08,0,0-.02,0-.03,0-.33-.04-.76-.02-1.11.03-1.59.24-1.93,1.39-2.06,1.95-.2.65-.21,1.26-.03,2.44.04.24.09.5.14.78.06.34.14.73.2,1.18.03.2.06.4.09.6-.06-.07-.11-.13-.14-.18-.16-.25-.36-.51-.54-.74-.08-.1-.18-.23-.22-.28l-.26-.3s-.13-.14-.19-.21c-.08-.09-.16-.18-.25-.26-.96-1.19-2.33-2.6-3.41-3.11l-.04-.02-.54-.24-1.21-.11-1.56.37c-.97.19-1.95.49-2.27.6-.07.03-.15.05-.23.08-.19.07-.41.15-.57.21-.49.15-.86.31-1.16.5-.6.39-.96.97-1.04,1.6-.03.19-.02.38,0,.58.07.47.26.9,1.11,1.89.29.34.83.95,1.3,1.31.43.36,1.19,1.05,3.58,3.46l.05.05c.56.53,1.6,1.71,1.98,2.14.49.61,1.16,1.39,1.61,1.88-.29.53-.75,1.32-1.41,2.4h0c-.51.86-1.14,1.98-1.43,2.55-.22.4-.67,1.25-1.49,2.81-.48.83-.69,1.31-1.04,2.18l-.03.08c-.23.65-.37.92-.79,1.57-.77,1.15-1.28,2.47-1.73,3.63-.05.14-.11.28-.16.42-.03.07-.06.13-.09.19-.2.42-.47,1-.36,1.74.1.65.54,1.78,2.4,2h.07c2.34.2,4.37.22,6.2.08.02,0,.04.01.06.02.16.06.39.14.69.17.2.02.4.02.59,0,.94-.14,1.42-.81,1.68-1.17.04-.05.07-.11.12-.16.26-.36.78-1.24,1.53-2.64.98-1.82,1.33-2.38,1.44-2.56.13-.2.35-.55.55-.91l.58,3.87,1.4,1.56.3.08c.15.04.3.07.45.09.4.04.74,0,1.13-.06.32-.05.86-.13,1.64-.29h.04s.1-.03.1-.03c1.56-.36,2.26-.54,2.68-.72,1.04-.44,1.54-1.03,1.74-2.1.11-.48.11-.95.02-1.58-.04-.29-.12-.65-.22-1.13-.05-.22-.1-.47-.15-.74v-.02c-.04-.18-.08-.37-.12-.56.33.32.67.62.87.79.2.17.72.65,2.13,2.04,1.13,1.12,1.88,1.81,2.23,2.07.06.04.11.08.16.12.32.24.75.57,1.39.65.19.02.38.02.56-.01.58-.08.97-.37,1.17-.53.01-.01.03-.02.05-.04,1.73-.39,3.51-.94,5.59-1.76.11-.04.21-.08.32-.12l.07-.03c.99-.43,1.44-1.02,1.62-1.57.14-.4.13-.77.09-1.05ZM103.91,224.23c-1.86.73-3.78,1.38-5.73,1.81-.14.02-.39.15-.56.27-.17.12-.29.23-.42.25-.02,0-.04,0-.07,0-.15-.02-.32-.17-.63-.4-.31-.23-1.22-1.1-2.02-1.9-.81-.79-1.82-1.79-2.24-2.14-.42-.35-1.01-.9-1.23-1.19-1.05-1.17-2.89-3.1-3.43-3.58-.07-.07-.12-.11-.14-.11-.02,0-.03.06-.04.15,0,.31.08,1.06.22,2.02.19,1.26.48,2.91.78,4.33.17.84.3,1.42.36,1.78.07.45.06.68,0,.92-.07.42-.11.52-.62.74-.3.14-1.41.39-2.47.64-.71.15-1.2.23-1.52.27-.3.05-.48.07-.63.06-.05,0-.1-.02-.14-.03l-.33-.09-1.25-8.38c-.04-.3-.09-.59-.13-.87-.02-.17-.05-.33-.07-.5-.06.08-.18.29-.35.6-.51.95-1.42,2.77-1.97,3.94-.13.34-.53,1.04-.83,1.5-.3.46-.98,1.7-1.52,2.7-.54,1-1.15,2.1-1.38,2.41-.27.36-.38.56-.56.59-.03,0-.06,0-.09,0-.11-.01-.23-.07-.38-.11-.12-.04-.28-.07-.41-.09-.08,0-.14-.01-.2,0-1.99.16-4.02.1-6.01-.07-.51-.06-.71-.17-.75-.39-.03-.22.15-.53.32-.92.5-1.26.99-2.62,1.74-3.74.48-.76.7-1.16.99-1.98.34-.83.51-1.22.94-1.97.57-1.09,1.25-2.39,1.5-2.84.25-.5.86-1.59,1.38-2.45.99-1.61,1.61-2.72,1.87-3.25.04-.08.07-.15.1-.21.04-.05.03-.09.02-.19-.02-.13-.19-.34-.63-.86-.38-.4-1.15-1.29-1.72-1.99-.61-.69-1.54-1.74-2.13-2.3-2.53-2.56-3.27-3.22-3.75-3.61-.51-.38-1.68-1.77-1.72-1.99s.26-.4.88-.59c.26-.09.65-.24.87-.32.22-.07,1.14-.35,2.03-.53l1.59-.37.54.24c.59.28,1.76,1.34,2.83,2.7.1.08.33.36.54.56.18.25.56.7.74.99.41.58,3.35,4.04,3.6,4.18,0,0,.55.61.64.62,0,0,0,0,0-.01l.08.61c-.03-.31-.05-.61-.07-.91-.16-1.99-.45-4.24-.75-6.26-.13-.85-.26-1.47-.34-1.96-.16-1.08-.11-1.36-.02-1.65.11-.47.15-.53.51-.58.2-.03.49-.04.64-.02.02,0,.03,0,.04,0,.02,0,.04,0,.06.01.09,0,.21,0,.4-.04.18-.03.45-.07.71-.15.26-.08.49-.12.71-.15.21-.03.37-.06.51-.04.01,0,.02,0,.04,0,.04,0,.09.02.14.02.29.03.78.02,1.23-.04.4-.02.68-.04.88-.01.31.04.43.15.47.45.03.18.03.5,0,.96,0,.69.11,2,.2,2.86.29,2.57.42,4.06.42,4.7l.07.49s.04-.05.04-.05c.2-.22,2.01-4.38,2.23-5.05.09-.33.33-.87.42-1.16.14-.25.28-.59.36-.69.63-1.61,1.44-2.96,1.92-3.4l.45-.39,1.63-.11c.91-.09,1.87-.09,2.1-.08.23.01.65.04.92.05.18,0,.34,0,.47.02.33.04.51.13.53.29.03.22-.68,1.89-1.06,2.41-.34.51-.85,1.36-2.53,4.54-.4.7-.99,1.98-1.37,2.81-.33.83-.81,1.91-1.06,2.41-.27.64-.37.88-.35,1.02.01.09.02.13.07.17.28.33,1.25,1.28,2.88,2.73.11.1.23.21.34.31.66.61,1.36,1.29,1.69,1.63.37.36,1.4,1.4,2.26,2.27.64.59.92.92,1.48,1.61.52.7.84,1.02,1.52,1.61,1.04.85,1.9,2.01,2.75,3.07.28.33.54.56.58.79.04.23-.12.39-.6.6Z"/>
            <path class="cls-4" d="M103.91,224.22c-1.86.73-3.78,1.39-5.73,1.81-.14.02-.39.15-.56.27-.17.12-.29.23-.42.25-.02,0-.05,0-.07,0-.16-.02-.32-.17-.63-.4-.31-.23-1.22-1.1-2.02-1.9-.81-.8-1.82-1.79-2.24-2.14-.42-.35-1-.9-1.23-1.19-1.21-1.33-3.43-3.66-3.57-3.68-.09.01,0,.92.19,2.17.19,1.26.48,2.91.78,4.33.17.85.3,1.42.36,1.78.07.45.06.68,0,.92-.07.42-.11.52-.62.74-.3.14-1.41.39-2.47.64-.71.15-1.2.23-1.52.27-.3.05-.48.07-.63.06-.05,0-.1-.02-.14-.03l-.33-.09-1.25-8.38c-.07-.48-.14-.93-.2-1.37-.24.32-1.59,2.99-2.32,4.53-.13.34-.53,1.04-.83,1.5-.3.46-.98,1.7-1.52,2.7-.54,1-1.15,2.1-1.38,2.4-.27.36-.38.56-.56.59-.03,0-.06,0-.09,0-.11-.01-.23-.07-.38-.11-.12-.04-.28-.07-.41-.09-.08,0-.15-.01-.2,0-1.99.16-4.02.09-6.01-.07-.51-.06-.71-.17-.75-.39-.03-.22.15-.53.32-.92.5-1.27.99-2.62,1.74-3.74.48-.76.7-1.16.99-1.98.33-.83.51-1.22.94-1.97.57-1.09,1.25-2.39,1.5-2.83.25-.5.86-1.59,1.38-2.45,1.14-1.87,1.79-3.06,1.96-3.45.04-.05.03-.09.02-.19-.02-.13-.19-.34-.63-.87-.38-.4-1.15-1.3-1.72-1.99-.6-.69-1.54-1.74-2.13-2.29-2.53-2.56-3.27-3.22-3.75-3.61-.51-.38-1.68-1.77-1.72-1.99-.03-.23.26-.41.88-.59.26-.09.65-.23.87-.31.22-.08,1.14-.35,2.03-.53l1.59-.37.54.24c.59.28,1.76,1.34,2.83,2.7.1.08.33.36.54.56.18.25.56.7.74.99.41.58,3.35,4.04,3.6,4.18,0,0,.55.61.64.62,0,0,.01,0,.01-.01l.08.62c-.03-.31-.05-.61-.07-.91-.16-1.99-.45-4.24-.75-6.26-.13-.85-.27-1.47-.34-1.97-.16-1.08-.11-1.36-.02-1.65.11-.47.15-.53.51-.58.2-.03.48-.03.64-.02.02,0,.03,0,.05,0,.02,0,.04,0,.06.01.09.01.21,0,.39-.03.18-.03.45-.07.71-.15s.49-.12.71-.15c.21-.03.38-.06.51-.04.01,0,.02,0,.03,0,.04,0,.09.02.14.02.29.03.78.02,1.23-.04.39-.02.67-.04.88-.01.31.04.43.15.47.45.03.18.03.5,0,.96.01.69.11,2,.2,2.86.29,2.57.42,4.06.42,4.7l.07.49s.04-.05.04-.05c.2-.21,2.01-4.38,2.23-5.05.09-.33.33-.88.42-1.16.15-.25.28-.59.36-.7.63-1.6,1.44-2.96,1.92-3.4l.45-.39,1.63-.11c.91-.09,1.87-.09,2.1-.08.23.01.65.04.92.05.18,0,.34,0,.48.02.33.04.51.13.53.29.03.22-.68,1.89-1.06,2.4-.34.51-.85,1.36-2.53,4.55-.4.7-.99,1.98-1.37,2.81-.33.83-.82,1.91-1.06,2.4-.27.64-.37.88-.35,1.01.01.09.02.13.07.17.28.33,1.25,1.28,2.88,2.73.74.67,1.65,1.54,2.03,1.94.37.36,1.4,1.39,2.26,2.27.64.59.92.92,1.48,1.61.52.7.84,1.02,1.52,1.61,1.04.85,1.9,2.01,2.75,3.07.28.33.54.56.57.79.03.23-.12.39-.6.59Z"/>
            <path class="cls-1" d="M159.86,196.44c-.66-.71-1.81-1.03-4.66-1.71l-.24-.06c-.23-.06-.65-.16-.81-.21.03.01.07.04.13.07l-.37-.17c-.4-.13-1.03-.29-1.54-.37-.1-.02-.19-.03-.28-.04-1.44-.16-2.62.29-3.61,1.37-.16.17-.5.55-3.25,4.41-.15-.59-.29-1.28-.39-1.82-.13-1.06-.33-2.12-.39-2.4l-.02-.08-.14-.53-1.29-1.32-.98-.29c-.94-.31-3.59-.82-3.89-.88h-.06s-2.68-.45-2.68-.45l-1.55.44-.27.23-.23.24c-.44.55-.74,1-.83,1.56-.04.21-.05.49.02.79-.02.35.04.89.4,2.33.24.94.52,1.96.75,2.65l.08.19c.4.88.65,1.3.94,1.62.03.06.07.15.13.29.13.41.37,1.19.61,1.8.37,1,1.37,4.17,1.82,5.66-.6.72-1.67,1.95-2.33,2.7-1.18,1.36-2.6,3.07-3.16,3.82-.5.66-1.55,1.9-2.3,2.7l-.03.03c-1.62,1.77-1.94,2.16-2.23,2.86-.22.22-.44.48-.6.74-.18.25-.41.59-.49,1.09-.14.87.29,1.47.43,1.66.16.22.33.41.51.56.54.7,1.47.92,2.14,1.07.18.05.45.12.74.2.49.14,1.05.29,1.51.4.58.17,1.64.46,2.2.55l.76.13,1.48-.39.58-.46c.77-.61,3.16-3.42,4.93-5.65.16.55.34,1.15.51,1.67l.05.18c.19.65.5,1.74.55,2.02l.02.11s.57,2.48,1.34,3.37l.14.14c.41.38.96.62,1.73.74.11.02.23.03.36.05.4.04.86.07,1.34.07.08,0,.32.01.66.05.17.02.33.04.5.07l.58.09c.4.07.77.12,1.11.16.72.08,1.22.1,1.6.07.21.08.44.15.71.19.06.01.12.02.18.03,1.37.16,2.44-.66,2.67-2.04.07-.44.13-.81-1.11-4.68-.43-1.33-1.03-3.13-1.51-4.36-.1-.24-.18-.47-.27-.66-.16-.4-.35-.88-.54-1.34-.21-.5-.42-1.02-.55-1.36-.18-.48-.64-1.67-.98-2.32,0-.01-.02-.03-.02-.04-.21-.38-.6-1.18-.87-1.77l-.03-.07-.03-.05c.51-.62,1.23-1.46,1.48-1.71.71-.58,1.34-1.37,3.7-4.38l.13-.17c2.2-2.82,3.7-4.63,4.58-5.54.02-.02.04-.04.06-.07.81-.79,1.03-1.26,1.11-1.73.12-.73-.17-1.51-.73-2.05ZM153.35,204.65c-2.37,3.01-3.01,3.83-3.59,4.28-.43.39-2.37,2.69-2.4,2.87-.01.09.22.63.5,1.18.27.59.68,1.44.93,1.9.13.24.3.61.46,1.02.15.37.31.77.43,1.1.26.68.79,1.92,1.11,2.75.14.33.33.8.53,1.34.95,2.58,2.31,6.92,2.24,7.33-.06.37-.2.5-.58.45-.03,0-.06,0-.09-.01-.22-.04-.49-.13-.51-.22,0-.04-.04-.05-.08-.06,0,0-.02,0-.03,0-.04,0-.08,0-.15.02-.28.08-.86.07-1.62-.01-.31-.04-.66-.08-1.02-.14l-.58-.09c-.2-.03-.4-.06-.59-.08-.35-.04-.65-.06-.86-.06-.43,0-.82-.02-1.15-.06-.09,0-.18-.02-.26-.04-.36-.06-.62-.14-.74-.26-.23-.27-.71-1.58-.92-2.54-.07-.42-.4-1.53-.66-2.45-.3-.97-.68-2.27-.89-2.99-.2-.72-.44-1.54-.48-1.82l-.15-.49-.76.98c-1.55,2.18-5.42,6.79-6.15,7.36l-.58.46-.76-.12c-.4-.07-1.33-.31-2.03-.51-.71-.16-1.76-.47-2.29-.6-.71-.16-1.05-.31-1.08-.41.01-.09-.06-.19-.15-.21-.09-.01-.21-.13-.32-.28-.07-.11-.11-.16-.1-.25.01-.09.07-.17.19-.34.13-.21.35-.45.45-.52s.24-.33.31-.5c.16-.39.22-.51,1.9-2.36.83-.87,1.91-2.17,2.44-2.86.53-.7,1.9-2.36,3.09-3.72,2.66-3.06,2.95-3.42,2.97-3.56.02-.14-1.61-5.36-2.12-6.73-.23-.59-.47-1.36-.59-1.75-.13-.34-.33-.79-.53-.96-.16-.16-.4-.66-.6-1.11-.43-1.31-1.11-3.95-1.04-4.3l.03-.18c.01-.09.02-.13-.02-.18s-.07-.11-.06-.19c.01-.09.1-.23.21-.39.06-.08.14-.18.22-.28l.27-.23,2.68.43c1.51.29,3.15.65,3.68.83l1.01.3.14.53c.05.24.25,1.28.37,2.26.17.95.49,2.37.73,3.1l.6,1.93c.09.29.2.49.29.51h0s.33-.32.61-.68c2.56-3.63,4.34-6.09,4.67-6.45.58-.63,1.16-.87,2-.77.06,0,.12.01.19.03.45.07.97.2,1.24.29.21.13.92.29,1.45.42,2.43.58,3.53.9,3.75,1.21.16.12.22.31.21.4-.02.09-.25.37-.57.69-.31.32-.69.73-1.14,1.26-.9,1.05-2.11,2.54-3.66,4.53Z"/>
            <path class="cls-4" d="M158.71,198.18c-.02.09-.24.37-.57.69-.94.95-2.48,2.81-4.8,5.79-2.37,3.01-3.01,3.83-3.59,4.28-.43.39-2.37,2.69-2.4,2.87-.01.09.22.63.5,1.18.27.59.68,1.44.93,1.9s.64,1.44.89,2.12c.26.68.79,1.92,1.11,2.75.83,1.93,2.85,8.18,2.77,8.67-.06.37-.2.5-.58.45-.03,0-.06,0-.09-.01-.22-.04-.48-.13-.51-.22,0-.05-.04-.05-.08-.06-.01,0-.02,0-.03,0-.04,0-.08,0-.16.02-.27.09-.86.08-1.62-.01-.31-.04-.66-.08-1.02-.14l-.58-.09c-.2-.03-.4-.06-.59-.08-.35-.04-.65-.06-.86-.06-.43,0-.82-.02-1.14-.06-.09-.01-.18-.02-.26-.04-.36-.06-.62-.15-.74-.26-.23-.27-.71-1.59-.92-2.54-.07-.42-.39-1.53-.66-2.45-.3-.97-.69-2.27-.89-2.99s-.44-1.54-.48-1.82l-.15-.48-.76.98c-1.55,2.18-5.42,6.79-6.16,7.36l-.58.46-.76-.12c-.4-.07-1.33-.31-2.03-.51-.71-.16-1.76-.47-2.29-.6-.71-.16-1.05-.31-1.08-.41.01-.09-.06-.19-.15-.21-.09-.02-.21-.13-.32-.28-.08-.1-.11-.16-.1-.24.01-.09.07-.17.19-.34.13-.21.35-.45.45-.52s.24-.33.31-.5c.16-.39.22-.51,1.9-2.36.83-.88,1.91-2.17,2.44-2.86.53-.7,1.9-2.36,3.09-3.72,2.66-3.06,2.95-3.42,2.97-3.56.02-.14-1.61-5.36-2.12-6.73-.23-.59-.47-1.36-.59-1.75-.13-.34-.33-.79-.53-.96-.16-.16-.4-.66-.6-1.11-.43-1.31-1.1-3.95-1.04-4.3l.03-.18c.02-.09.02-.13-.02-.19-.04-.05-.08-.1-.06-.19.02-.14.2-.38.43-.67l.27-.23,2.68.44c1.51.29,3.15.65,3.68.83l1.01.3.14.53c.05.24.25,1.28.37,2.26.17.95.48,2.37.73,3.1l.6,1.93c.09.29.2.49.29.51h0s.33-.32.61-.68c2.56-3.62,4.34-6.09,4.68-6.45.57-.63,1.16-.87,2-.77.06,0,.12.01.19.03.45.07.98.2,1.24.29.21.13.92.29,1.45.42,2.43.58,3.53.9,3.75,1.21.16.12.23.31.21.4Z"/>
            <path class="cls-1" d="M131.87,205.54c-.04-.88-.59-1.37-.77-1.53-.2-.18-.41-.33-.62-.44-.68-.57-1.63-.59-2.32-.6-.19,0-.47-.02-.76-.04-.51-.03-1.09-.06-1.56-.07-.31-.02-.74-.05-1.17-.07-.41-.01-.82-.02-1.1,0l-.77.04-1.37.69-.47.57c-.63.75-2.37,4.01-3.63,6.57-.28-.5-.58-1.05-.85-1.53l-.09-.17c-.32-.6-.86-1.6-.97-1.86l-.04-.1s-1.08-2.31-2.02-3.01l-.17-.11c-.48-.29-1.07-.4-1.85-.36-.2,0-.42.03-.66.06-.32.04-.67.11-1.02.18-.06.01-.18.03-.34.05-.18.02-.47.06-.82.07l-.59.03c-.61.03-1.15.08-1.61.14-.43.06-.78.12-1.08.21-.22-.04-.46-.05-.74-.04-.1,0-.2.01-.29.03-1.01.14-1.72.74-1.97,1.62-.08.28-.11.59-.1.92.02.44.04.82,2.07,4.34.84,1.45,2.07,3.5,2.8,4.53.24.36.53.78.81,1.19.31.45.63.91.83,1.21.29.45,1,1.55,1.48,2.1.29.33.83,1.02,1.22,1.55l.05.06s.03.03.04.05c-.37.72-.89,1.69-1.08,1.98-.57.72-1.02,1.62-2.7,5.06l-.09.18c-1.59,3.3-2.69,5.41-3.35,6.47-.63.94-.74,1.45-.72,1.93.04.74.49,1.44,1.15,1.85.8.55,1.98.63,4.92.69h.24c.25.01.72.03.86.05-.02,0-.08-.01-.17-.04l.4.09c.41.05,1.07.06,1.58.04.15,0,.31-.02.45-.04,1.36-.18,2.36-.86,3.07-2.08.14-.24.46-.8,3.3-7.46.12-.24.2-.39.23-.44-.07.1-.18.22-.33.34l-.27-.11.78-.51,3.8-7.37.21-.97c.02.32-.06.56-.09.63.17-.39,1.36-2.55,2-3.72.86-1.58,1.89-3.55,2.29-4.4.35-.75,1.11-2.19,1.68-3.13l.02-.04c1.2-2.08,1.44-2.52,1.58-3.27.17-.25.33-.56.43-.85.12-.29.28-.67.25-1.17ZM129.85,206.01c-.08.23-.25.51-.33.61-.09.1-.16.37-.2.55-.07.41-.11.55-1.36,2.7-.63,1.03-1.41,2.52-1.78,3.31-.37.79-1.36,2.7-2.23,4.29-1.95,3.55-2.16,3.97-2.15,4.1l-3.8,7.37s-.09.1-.17.24c-.08.15-.18.34-.29.55-1.74,4.08-2.96,6.87-3.21,7.29-.41.71-.91,1.06-1.68,1.16-.1.01-.19.02-.3.03-.45.02-1,0-1.27-.03-.23-.08-.96-.09-1.5-.1-2.5-.05-3.64-.13-3.92-.39-.18-.08-.29-.26-.29-.35,0-.09.16-.42.41-.79.71-1.13,1.83-3.27,3.47-6.67,1.69-3.45,2.13-4.38,2.6-4.95.34-.47,1.75-3.13,1.74-3.31,0-.09-.35-.57-.73-1.05-.39-.53-.97-1.27-1.31-1.66-.34-.39-.93-1.27-1.32-1.88-.4-.61-1.18-1.71-1.67-2.45-1.22-1.71-4.51-7.39-4.53-7.89,0-.17,0-.29.06-.37.06-.11.18-.16.36-.19.04,0,.09,0,.14-.01.22-.01.5.02.55.11,0,.04.05.04.09.04.01,0,.03,0,.04,0,.03,0,.07-.02.14-.05.2-.11.61-.21,1.15-.28.42-.06.91-.1,1.46-.13l.59-.03c.35-.02.69-.05.97-.09.18-.02.35-.05.47-.08.32-.07.62-.12.89-.16.19-.03.36-.04.51-.05.36-.02.64.01.78.1.28.21,1.03,1.4,1.44,2.29.16.4.71,1.41,1.16,2.25.44.77.99,1.78,1.36,2.47h0c.05.1.1.19.14.27.35.66.75,1.41.86,1.68l.25.44.53-1.11c.95-2.21,3.32-6.74,4.22-8.15.1-.16.18-.28.25-.35l.47-.57h.09s.68-.04.68-.04c.41-.02,1.36.02,2.09.07.73,0,1.82.09,2.37.11.73,0,1.09.08,1.14.17,0,.09.1.18.19.17.09,0,.23.08.37.21.09.09.14.13.15.22,0,.09-.04.18-.12.37Z"/>
            <path class="cls-4" d="M129.97,205.64c0,.09-.04.18-.12.37-.08.23-.25.51-.33.61-.09.09-.16.37-.2.55-.07.41-.11.55-1.36,2.7-.63,1.03-1.41,2.52-1.78,3.31-.37.79-1.36,2.7-2.23,4.29-1.95,3.55-2.16,3.97-2.15,4.1l-3.8,7.37s-.09.1-.17.24c-.08.15-.19.34-.29.55-1.74,4.08-2.96,6.87-3.21,7.29-.41.71-.91,1.06-1.68,1.16-.1.01-.2.02-.3.03-.45.02-1,0-1.27-.03-.23-.08-.96-.09-1.5-.1-2.5-.05-3.64-.13-3.92-.39-.18-.08-.29-.26-.29-.35,0-.09.16-.42.41-.79.71-1.13,1.83-3.27,3.47-6.67,1.68-3.45,2.13-4.38,2.6-4.95.34-.47,1.74-3.13,1.74-3.31,0-.09-.35-.57-.73-1.05-.39-.53-.97-1.27-1.31-1.66-.34-.39-.93-1.27-1.32-1.88-.39-.61-1.18-1.71-1.67-2.45-1.22-1.71-4.51-7.39-4.54-7.89-.02-.36.08-.51.42-.56.04,0,.09,0,.14-.01.23-.01.5.02.55.11,0,.05.05.04.09.04.01,0,.03,0,.04,0,.03,0,.08-.02.14-.05.2-.11.61-.21,1.15-.28.41-.06.91-.1,1.46-.13l.59-.03c.35-.02.69-.05.97-.09.19-.02.35-.05.47-.08.32-.07.62-.12.89-.16.19-.03.36-.04.51-.05.36-.02.64.01.78.1.28.21,1.03,1.4,1.44,2.29.16.4.71,1.42,1.16,2.25.5.88,1.15,2.07,1.5,2.74.35.66.75,1.41.86,1.68l.25.44.53-1.12c1.05-2.46,3.86-7.78,4.46-8.49l.47-.57.77-.04c.41-.02,1.36.02,2.09.07.73,0,1.82.09,2.37.11.73,0,1.09.08,1.14.17,0,.09.1.18.19.17.09,0,.23.08.37.21.09.09.14.13.15.22Z"/>
            <g>
              <path class="cls-1" d="M168.32,213.85l-.23-.1c-.71-.29-1.44-.59-2.17-.85-.4-.14-.8-.32-1.19-.49-.77-.33-1.56-.68-2.43-.83-.04,0-.08-.01-.11-.01-.31-.04-.58,0-.9.16-.4.19-.65.46-.82.77,0,0,0,0,0,0-.16.3-.25.63-.33.92-.02.08-.04.17-.07.25-.24.84-.5,1.7-.76,2.53-.3.98-.61,1.98-.89,2.98l-.04.15c-.62,2.23-1.27,4.55-1.69,6.89-.31,1.7-.54,3.22-.7,4.67-.09.79-.04,1.67,1.03,2.19.34.17.68.3,1.03.42.06,0,.13.01.2.02.06,0,.13.02.19.03.26.04.53.1.8.19h0c.14.04.27.09.41.15h0c.07.03.13.06.2.09h0c.41.09.79.16,1.16.21.04,0,.07,0,.11.01.76.09,1.36-.12,1.73-.58.14-.17.24-.37.32-.61.16-.52.34-1.05.51-1.56.28-.81.57-1.65.79-2.51.12-.49.31-.96.51-1.46.06-.16.13-.32.19-.48.14-.38.3-.77.45-1.15.23-.59.47-1.19.69-1.8.41-1.15.79-2.3,1.11-3.27.17-.53.36-1.07.55-1.59.31-.88.64-1.79.89-2.71.03-.11.05-.21.07-.31.05-.22.11-.43.17-.63.23-.77-.04-1.38-.76-1.67ZM161.66,232.86c-.06.03-.13.04-.21.05.08,0,.15-.02.21-.05.04-.02.08-.04.11-.06-.04.03-.07.05-.11.06ZM165.95,219.78l-.04.1c-.14.39-.26.79-.38,1.17-.07.25-.15.51-.24.76-.4,1.21-.89,2.42-1.37,3.59-.13.32-.26.65-.39.98-.22.56-.42,1.14-.58,1.73-.12.45-.26.89-.4,1.34-.14.43-.28.86-.43,1.28-.15.46-.32.94-.47,1.41q-.12.37-.56.32s-.07,0-.11-.01c-.95-.12-1.9-.37-2.9-.75-.38-.15-.4-.21-.39-.47.06-.9.18-1.82.3-2.7.03-.19.05-.38.08-.58.24-1.78.68-3.52,1.18-5.46v-.02s0-.02,0-.02c.24-1.37.77-2.97,1.28-4.52l.13-.4c.17-.52.31-1.05.44-1.57.11-.45.22-.88.36-1.3.11-.36.23-.7.39-1.04.16-.34.19-.34.3-.33.04,0,.09.02.14.03.56.15,1.07.39,1.62.63.37.17.76.34,1.16.49.35.13.71.27,1.06.41.41.16.83.33,1.25.48-.38,1.51-.93,3.01-1.47,4.45Z"/>
              <path class="cls-4" d="M167.42,215.33c-.38,1.51-.93,3.01-1.47,4.45l-.04.1c-.14.39-.26.79-.38,1.17-.08.25-.15.51-.24.76-.4,1.21-.89,2.42-1.36,3.6-.13.32-.26.65-.39.98-.22.56-.42,1.14-.58,1.74-.24.88-.54,1.76-.83,2.61-.16.46-.32.94-.47,1.41q-.12.37-.56.32s-.07,0-.11-.01c-.95-.12-1.9-.37-2.9-.75-.38-.15-.4-.21-.39-.47.06-.9.18-1.82.3-2.7.03-.19.05-.38.08-.57.24-1.78.68-3.52,1.18-5.46v-.02s0-.02,0-.02c.24-1.37.77-2.97,1.28-4.52l.13-.4c.17-.52.31-1.06.44-1.57.21-.83.41-1.6.74-2.35.16-.35.19-.34.3-.33.04,0,.09.01.14.03.56.15,1.07.38,1.62.63.37.17.76.34,1.16.49.35.13.71.27,1.06.41.41.16.83.33,1.25.48Z"/>
            </g>
            <g>
              <path class="cls-1" d="M162.01,238.62c-.15-.5-.41-.91-.66-1.31-.04-.05-.07-.11-.1-.16-.29-.46-.69-.82-1.15-1.1-.14-.09-.3-.17-.45-.24h0c-.33-.07-.69-.16-1.07-.26-.13-.04-.26-.07-.4-.11-.05-.01-.11-.03-.17-.05-.06-.02-.11-.04-.17-.05-.51-.04-.98.01-1.38.14-1.65.53-2.7,1.7-2.94,3.29-.47,1.83-.35,2.6.59,4.14.79,1.27,2.04,1.55,2.92,1.65.18.02.37.04.58.05.77.04,1.36-.32,1.87-.68.04-.03.08-.06.12-.08.09-.07.18-.13.28-.19,1.45-.95,2.67-3.14,2.12-5.04ZM158.21,242.71c-.35.15-.73.2-1.11.16-.92-.1-1.71-.75-1.96-1.61-.31-1.03-.17-2.04.41-3.09.45-.81,1.34-1.25,2.32-1.14.19.02.38.06.56.12h.01s.01,0,.01,0c.08.02.16.04.23.07.72.27,1.33.88,1.6,1.61.27.74.17,1.52-.29,2.18-.12.17-.23.32-.34.47-.43.55-.86.95-1.44,1.2Z"/>
              <path class="cls-4" d="M160,241.05c-.56.8-1.05,1.35-1.78,1.67-.35.15-.73.2-1.11.16-.92-.1-1.71-.75-1.96-1.6-.31-1.03-.17-2.04.41-3.09.45-.81,1.34-1.25,2.31-1.14.19.02.38.06.56.12h.01s.01,0,.01,0c.82.21,1.53.88,1.83,1.69.27.74.17,1.52-.29,2.18Z"/>
            </g>
          </g>
        </g>
        <path class="cls-4" d="M132.57,242.89c-1.8,0-5.62,2.52-5.62,5.62,0-1.94-2.52-5.62-5.62-5.62,2.08,0,5.62-2.52,5.62-5.62,0,2.08,2.52,5.62,5.62,5.62Z"/>
        <path class="cls-4" d="M115.51,190.48c-1.04,0-3.25,1.46-3.25,3.25,0-1.12-1.46-3.25-3.25-3.25,1.2,0,3.25-1.46,3.25-3.25,0,1.2,1.46,3.25,3.25,3.25Z"/>
        <path class="cls-4" d="M134.4,180.21c-1.8,0-5.62,2.52-5.62,5.62,0-1.94-2.52-5.62-5.62-5.62,2.08,0,5.62-2.52,5.62-5.62,0,2.08,2.52,5.62,5.62,5.62Z"/>
        <path class="cls-4" d="M135.74,161.04c-.96,0-2.98,1.33-2.98,2.98,0-1.03-1.33-2.98-2.98-2.98,1.1,0,2.98-1.33,2.98-2.98,0,1.1,1.33,2.98,2.98,2.98Z"/>
        <path class="cls-4" d="M84.65,96.56c-1.04,0-3.25,1.46-3.25,3.25,0-1.12-1.46-3.25-3.25-3.25,1.2,0,3.25-1.46,3.25-3.25,0,1.2,1.46,3.25,3.25,3.25Z"/>
        <path class="cls-4" d="M92.92,74.48c-.73,0-2.29,1.02-2.29,2.29,0-.79-1.02-2.29-2.29-2.29.85,0,2.29-1.02,2.29-2.29,0,.85,1.02,2.29,2.29,2.29Z"/>
      </g>
    </g>
  </g>
</svg>